<svg width="24" height="26" viewBox="0 0 24 26" fill="none" xmlns="http://www.w3.org/2000/svg">
<path d="M4 23.9091V16.2727C4 15.6702 4.47969 15.1818 5.07143 15.1818C5.66316 15.1818 6.14286 15.6702 6.14286 16.2727V23.9091C6.14286 24.5116 5.66316 25 5.07143 25C4.47969 25 4 24.5116 4 23.9091ZM10.4286 23.9091V2.09091C10.4286 1.48842 10.9083 1 11.5 1C12.0917 1 12.5714 1.48842 12.5714 2.09091V23.9091C12.5714 24.5116 12.0917 25 11.5 25C10.9083 25 10.4286 24.5116 10.4286 23.9091ZM16.8571 23.9091V10.8182C16.8571 10.2157 17.3368 9.72727 17.9286 9.72727C18.5203 9.72727 19 10.2157 19 10.8182V23.9091C19 24.5116 18.5203 25 17.9286 25C17.3368 25 16.8571 24.5116 16.8571 23.9091Z" fill="#034AD8" stroke="white" stroke-width="2" stroke-linecap="round" stroke-linejoin="round"/>
</svg>
