<svg width="18" height="19" viewBox="0 0 18 19" fill="none" xmlns="http://www.w3.org/2000/svg">
<path d="M0 11C0 10.4477 0.447715 10 1 10C1.55228 10 2 10.4477 2 11V18C2 18.5523 1.55228 19 1 19C0.447715 19 0 18.5523 0 18V11Z" fill="white"/>
<path d="M16 14C16 13.4477 16.4477 13 17 13C17.5523 13 18 13.4477 18 14V18C18 18.5523 17.5523 19 17 19C16.4477 19 16 18.5523 16 18V14Z" fill="white"/>
<path d="M4 4C4 3.44771 4.44772 3 5 3C5.55228 3 6 3.44771 6 4V18C6 18.5523 5.55228 19 5 19C4.44772 19 4 18.5523 4 18V4Z" fill="white"/>
<path d="M8 7C8 6.44771 8.44771 6 9 6C9.55229 6 10 6.44771 10 7V18C10 18.5523 9.55229 19 9 19C8.44771 19 8 18.5523 8 18V7Z" fill="white"/>
<path d="M12 1C12 0.447716 12.4477 0 13 0C13.5523 0 14 0.447716 14 1V18C14 18.5523 13.5523 19 13 19C12.4477 19 12 18.5523 12 18V1Z" fill="white"/>
</svg>
