<svg width="24" height="24" viewBox="0 0 24 24" fill="none" xmlns="http://www.w3.org/2000/svg">
<path fill-rule="evenodd" clip-rule="evenodd" d="M12 1C11.4742 1 10.9577 1.1377 10.5021 1.39927L7.30637 3.21898C7.09619 3.2604 6.90013 3.36858 6.75253 3.53434L3.50386 5.38417L3.5 5.38639C3.13004 5.59923 2.81097 5.88775 2.56312 6.23172C2.50275 6.29188 2.44918 6.3608 2.4044 6.43794C2.36582 6.50439 2.33581 6.57343 2.31401 6.64379C2.10832 7.05579 2.00048 7.51038 2 7.97223V15.946C2.00054 16.4703 2.13941 16.9851 2.40269 17.439C2.66597 17.8929 3.04439 18.2698 3.5 18.5319L3.50386 18.5341L10.5 22.5178L10.5019 22.5188C10.8191 22.701 11.1659 22.8232 11.5248 22.8805C11.6662 22.9567 11.828 23 12 23C12.172 23 12.3338 22.9567 12.4752 22.8805C12.8341 22.8231 13.181 22.701 13.4982 22.5188L13.5 22.5178L20.4961 18.5341L20.5 18.5319C20.9556 18.2698 21.334 17.8929 21.5973 17.439C21.8606 16.9851 21.9995 16.4703 22 15.946V7.97223C21.9995 7.51039 21.8917 7.05581 21.686 6.64381C21.6642 6.57344 21.6342 6.5044 21.5956 6.43794C21.5508 6.3608 21.4972 6.29187 21.4369 6.2317C21.189 5.88774 20.87 5.59922 20.5 5.38638L13.5 1.40051L13.4979 1.39931C13.0424 1.13771 12.5258 1 12 1ZM13 20.5071L19.5 16.8059L19.5016 16.805C19.6527 16.7177 19.7783 16.5924 19.8658 16.4416C19.9535 16.2904 19.9998 16.1187 20 15.944V8.50887L13 12.5438V20.5071ZM11 12.5438L4 8.50887V15.9444C4.00025 16.119 4.04654 16.2905 4.13423 16.4416C4.22169 16.5924 4.34726 16.7177 4.49842 16.805L4.5 16.8059L11 20.5071V12.5438ZM12.5 3.12645L18.961 6.80541L16.5052 8.221L9.56091 4.2306L11.4961 3.12866L11.5 3.12644C11.652 3.03898 11.8245 2.99294 12 2.99294C12.1755 2.99294 12.348 3.03899 12.5 3.12645ZM12 10.8179L14.5065 9.37307L7.55 5.37563L5.039 6.80541L12 10.8179Z" fill="#034AD8"/>
</svg>
