<svg width="15" height="24" viewBox="0 0 15 24" fill="none" xmlns="http://www.w3.org/2000/svg">
<path d="M0 22.9091V15.2727C0 14.6702 0.479695 14.1818 1.07143 14.1818C1.66316 14.1818 2.14286 14.6702 2.14286 15.2727V22.9091C2.14286 23.5116 1.66316 24 1.07143 24C0.479695 24 0 23.5116 0 22.9091ZM6.42857 22.9091V1.09091C6.42857 0.488417 6.90827 0 7.5 0C8.09173 0 8.57143 0.488417 8.57143 1.09091V22.9091C8.57143 23.5116 8.09173 24 7.5 24C6.90827 24 6.42857 23.5116 6.42857 22.9091ZM12.8571 22.9091V9.81818C12.8571 9.21569 13.3368 8.72727 13.9286 8.72727C14.5203 8.72727 15 9.21569 15 9.81818V22.9091C15 23.5116 14.5203 24 13.9286 24C13.3368 24 12.8571 23.5116 12.8571 22.9091Z" fill="#F408FC"/>
</svg>
