<svg width="24" height="24" viewBox="0 0 24 24" fill="none" xmlns="http://www.w3.org/2000/svg">
<path d="M7.20072 0.997004C7.66781 0.79329 8.21188 1.006 8.41587 1.47297C8.61981 1.94019 8.40621 2.48507 7.93901 2.68903C6.41896 3.35252 5.08416 4.37789 4.05199 5.67643C3.01987 6.97495 2.32111 8.50681 2.01743 10.1377C1.71381 11.7686 1.81479 13.4494 2.3104 15.0326C2.80608 16.6158 3.68207 18.0535 4.86148 19.2198C6.04086 20.3861 7.48759 21.2463 9.07572 21.724C10.664 22.2017 12.3454 22.2825 13.9724 21.9602C15.5993 21.6379 17.1229 20.9224 18.4093 19.8752C19.6956 18.828 20.7056 17.481 21.3516 15.953C21.5501 15.4835 22.0918 15.2641 22.5613 15.4626C23.0308 15.6611 23.2502 16.2028 23.0517 16.6723C22.2883 18.4779 21.0949 20.0692 19.5748 21.3067C18.0546 22.5443 16.2539 23.3903 14.3311 23.7712C12.4084 24.1521 10.4218 24.0563 8.54477 23.4918C6.66777 22.9273 4.95724 21.9115 3.56341 20.5332C2.16952 19.1548 1.13386 17.4552 0.548081 15.5843C-0.0375617 13.7135 -0.155896 11.7277 0.202829 9.80057C0.561652 7.87315 1.38716 6.06265 2.60698 4.52798C3.82679 2.99335 5.40422 1.78117 7.20072 0.997004ZM12 0C13.5759 0 15.137 0.31086 16.5929 0.914071C18.0485 1.51727 19.3711 2.40124 20.4853 3.51566C21.5995 4.63022 22.4838 5.9537 23.0868 7.40992C23.6898 8.86602 24 10.4268 24 12.0028C23.9999 12.5126 23.5867 12.9259 23.0769 12.9259H12C11.4903 12.9258 11.077 12.5125 11.0769 12.0028V0.923085C11.0769 0.67832 11.1743 0.443536 11.3474 0.270435C11.5204 0.0973756 11.7553 5.89857e-05 12 0ZM12.9231 11.0797H22.1106C22.0178 10.0624 21.7735 9.06281 21.3813 8.11576C20.871 6.88355 20.1228 5.76404 19.18 4.82096C18.2372 3.87795 17.1178 3.13 15.8861 2.61961C14.9394 2.22737 13.94 1.98229 12.9231 1.88944V11.0797Z" fill="white"/>
</svg>
