<svg width="16" height="16" viewBox="0 0 16 16" fill="none" xmlns="http://www.w3.org/2000/svg">
<path d="M3 17V14C3 13.7348 2.89457 13.4805 2.70703 13.293C2.51949 13.1054 2.26522 13 2 13H-1C-1.55228 13 -2 12.5523 -2 12C-2 11.4477 -1.55228 11 -1 11H2C2.79565 11 3.55849 11.3163 4.12109 11.8789C4.6837 12.4415 5 13.2044 5 14V17C5 17.5523 4.55228 18 4 18C3.44772 18 3 17.5523 3 17ZM11 17V14C11 13.2043 11.3163 12.4415 11.8789 11.8789C12.4415 11.3163 13.2043 11 14 11H17C17.5523 11 18 11.4477 18 12C18 12.5523 17.5523 13 17 13H14C13.7348 13 13.4805 13.1054 13.293 13.293C13.1054 13.4805 13 13.7348 13 14V17C13 17.5523 12.5523 18 12 18C11.4477 18 11 17.5523 11 17ZM3 2V-1C3 -1.55228 3.44772 -2 4 -2C4.55228 -2 5 -1.55228 5 -1V2C5 2.79565 4.6837 3.55848 4.12109 4.12109C3.55848 4.6837 2.79565 5 2 5H-1C-1.55228 5 -2 4.55228 -2 4C-2 3.44772 -1.55228 3 -1 3H2C2.26522 3 2.5195 2.89457 2.70703 2.70703C2.89457 2.5195 3 2.26522 3 2ZM11 2V-1C11 -1.55228 11.4477 -2 12 -2C12.5523 -2 13 -1.55228 13 -1V2C13 2.26522 13.1054 2.51949 13.293 2.70703C13.4805 2.89457 13.7348 3 14 3H17C17.5523 3 18 3.44772 18 4C18 4.55228 17.5523 5 17 5H14C13.2044 5 12.4415 4.6837 11.8789 4.12109C11.3163 3.55849 11 2.79565 11 2Z" fill="#034AD8"/>
</svg>
