<svg width="22" height="22" viewBox="0 0 22 22" fill="none" xmlns="http://www.w3.org/2000/svg">
<path fill-rule="evenodd" clip-rule="evenodd" d="M18.7945 3.19692C16.7267 1.13638 13.9765 0.00104543 11.0462 0C5.00812 0 0.094017 4.89 0.091916 10.9007C0.0908655 12.8222 0.595617 14.6977 1.55417 16.3505L0 22L5.807 20.4841C7.40685 21.3529 9.20841 21.8102 11.0415 21.8108H11.0462C17.0832 21.8108 21.9979 16.9203 22 10.9096C22.001 7.99651 20.8628 5.25799 18.7945 3.19744V3.19692ZM11.0462 19.9698H11.0425C9.40903 19.9693 7.80658 19.5323 6.40842 18.7069L6.07592 18.5104L2.62986 19.41L3.54954 16.0661L3.33314 15.7232C2.42186 14.2806 1.94022 12.6131 1.94127 10.9012C1.94337 5.90563 6.0276 1.841 11.0499 1.841C13.4817 1.84204 15.7676 2.78555 17.4866 4.49848C19.2058 6.2109 20.1517 8.48786 20.1507 10.9085C20.1485 15.9047 16.0643 19.9693 11.0462 19.9693V19.9698ZM16.0401 13.1839C15.7665 13.0475 14.4209 12.3888 14.1698 12.2979C13.9187 12.2069 13.7365 12.1615 13.5542 12.4343C13.372 12.7072 12.8473 13.3209 12.6876 13.5022C12.5279 13.6841 12.3682 13.7066 12.0946 13.5702C11.821 13.4337 10.9391 13.1463 9.89334 12.2184C9.07977 11.496 8.53032 10.6043 8.3707 10.3314C8.21101 10.0586 8.35389 9.91118 8.49041 9.7758C8.61331 9.65349 8.76407 9.45748 8.90114 9.29856C9.03827 9.13964 9.08343 9.02573 9.17479 8.84431C9.26622 8.66241 9.22051 8.50355 9.15224 8.36707C9.08392 8.23066 8.53667 6.88987 8.30818 6.3447C8.08598 5.81363 7.86017 5.88577 7.69261 5.87688C7.53292 5.86904 7.35069 5.86747 7.16791 5.86747C6.98512 5.86747 6.68886 5.93543 6.43781 6.20828C6.18677 6.48111 5.47978 7.14026 5.47978 8.4805C5.47978 9.82074 6.46042 11.1166 6.59749 11.2985C6.73457 11.4804 8.52769 14.2314 11.2731 15.4117C11.926 15.6924 12.436 15.8602 12.8336 15.9857C13.4891 16.1932 14.0857 16.1639 14.5574 16.0939C15.0832 16.0155 16.1767 15.4347 16.4047 14.7986C16.6326 14.1624 16.6326 13.6167 16.5644 13.5033C16.4961 13.3898 16.3133 13.3214 16.0396 13.1849L16.0401 13.1839Z" fill="#034AD8"/>
</svg>
