<svg width="160" height="100" viewBox="0 0 160 100" fill="none" xmlns="http://www.w3.org/2000/svg">
<rect width="160" height="100" rx="4" fill="#DFEFFF"/>
<path d="M62.9551 85.282C63.3053 84.9069 63.3866 84.4825 63.4492 84.052C63.4679 83.8983 63.518 83.7384 63.3053 83.6769C63.1115 83.6215 62.9989 83.7569 62.9301 83.886C62.6925 84.3349 62.6487 84.79 62.9614 85.282H62.9551ZM59.3655 83.1849C60.1347 82.9143 60.7163 82.5207 61.2604 82.0841C62.5486 81.057 63.6993 79.8886 64.7875 78.6586C65.3628 78.0129 65.8068 77.2749 66.0445 76.4385C66.1445 76.0879 66.1946 75.7312 66.032 75.3745C65.5379 74.2799 63.8056 73.7141 62.7488 74.2737C62.1484 74.5935 61.6981 75.0486 61.3417 75.5959C60.3786 77.0842 59.9534 78.7631 59.6407 80.4667C59.4843 81.3215 59.4593 82.2009 59.3655 83.1788V83.1849ZM57.9959 89.1626C59.6219 88.4 61.1353 87.7543 62.2672 86.512C62.5924 86.1553 62.8113 85.8048 62.4423 85.2882C62.1672 84.913 62.1422 84.4087 62.2485 83.9352C62.2797 83.7876 62.336 83.6277 62.4298 83.5109C62.6675 83.2095 62.9927 82.9881 63.3804 83.0742C63.7744 83.1603 63.937 83.4986 64.0245 83.8798C64.1246 84.3411 63.8932 84.7285 63.7431 85.1467C64.6186 85.0914 65.269 84.5133 65.5004 83.5662C65.5817 83.2403 65.5817 82.902 65.6255 82.5638C65.6755 82.1886 65.7693 82.1333 66.1445 82.2563C66.2696 82.2993 66.3822 82.367 66.5073 82.4162C67.6955 82.8959 68.8086 82.6314 69.5841 81.6413C69.8092 81.3522 69.9781 81.4937 70.0594 81.6659C70.4283 82.4285 71.0975 82.4654 71.8042 82.4039C72.4045 82.3485 73.0049 82.2624 73.6115 82.1948C73.7678 82.1763 73.9492 82.1702 73.993 82.367C74.0367 82.5638 73.8679 82.6376 73.7178 82.6806C72.9611 82.9205 72.1856 83.0619 71.3914 83.0558C70.9349 83.0496 70.5221 82.8651 70.1719 82.5638C70.0281 82.4408 69.8843 82.3608 69.6904 82.533C68.621 83.474 67.4328 83.2956 66.2071 82.8897C66.007 82.9943 66.0695 83.2034 66.0507 83.3633C65.9132 84.7224 65.0814 85.5034 63.8244 85.8847C63.4679 85.9954 63.2616 86.1553 63.0427 86.4505C62.4736 87.2192 61.8232 87.9019 60.9039 88.3262C59.9784 88.7567 59.1216 89.3225 58.146 89.6608C57.7333 89.8022 57.5644 90.1527 57.4581 90.5463C57.4081 90.737 57.3518 90.983 57.0641 90.9461C56.7702 90.9092 56.7077 90.6632 56.6576 90.4356C56.6139 90.2265 56.6326 89.9805 56.8077 89.8514C57.4831 89.3471 57.5457 88.5599 57.7583 87.8588C58.0522 86.8687 58.2648 85.854 58.5087 84.8454C58.54 84.7039 58.5338 84.544 58.54 84.4272C58.3774 84.2857 58.2398 84.3472 58.1335 84.3964C56.5013 85.1467 54.7502 85.3066 52.9867 85.4358C51.8673 85.5157 50.7416 85.5895 49.6722 86.0262C48.8592 86.3521 48.3652 86.9609 47.9087 87.6251C47.1895 88.6706 46.7955 89.8391 46.6016 91.0814C46.5391 91.4688 46.5203 91.844 46.6642 92.2314C46.0576 92.1638 45.9888 92.09 46.0013 91.518C46.0326 89.9436 46.5516 88.5353 47.4459 87.2377C48.0963 86.2906 48.8592 85.4911 50.0349 85.2021C50.9292 84.9807 51.8485 84.8884 52.7741 84.8577C54.6564 84.79 56.4763 84.4272 58.2273 83.7323C58.6213 83.5724 58.8152 83.3387 58.8589 82.9328C58.9653 81.9549 59.0653 80.9771 59.2029 80.0054C59.4718 78.0805 60.0034 76.2355 61.2979 74.7165C62.6862 73.0806 63.8056 72.9638 65.5754 74.3229C67.1639 75.5467 66.8887 76.9059 65.9069 78.2281C64.5874 79.9993 62.9739 81.5306 61.2416 82.9389C60.7976 83.3018 60.2598 83.4309 59.772 83.6769C59.4781 83.8245 59.2404 83.9967 59.1716 84.3411C58.8715 85.9093 58.4775 87.4529 58.0209 89.1503" fill="white"/>
<path d="M34.8474 56.0403C34.8474 56.4772 34.3799 56.8037 33.9458 56.8037L17.0685 56.8901C16.6344 56.8901 16.1526 56.5396 16.1526 56.1075L16.167 44.1086C16.167 43.6716 16.6965 43.3067 17.1306 43.3067L33.9887 43.2779C34.4228 43.2779 34.8426 43.6428 34.8426 44.0797V56.0499L34.8474 56.0403Z" fill="#C9B42D"/>
<path d="M33.3638 43.1437H18.1896C18.0274 43.1437 17.8747 43.1437 17.7364 43.1437C17.0065 43.1341 16.52 43.1293 16.2481 43.3981C16.0811 43.5662 16 43.8351 16 44.2432V55.9205C16 56.3334 16.0763 56.6023 16.2481 56.7655C16.477 56.9912 16.8491 57.0248 17.3881 57.0248C17.4979 57.0248 17.6171 57.0248 17.7411 57.0248C17.8843 57.0248 18.0321 57.0248 18.1943 57.0248H33.3638C34.8474 57.0248 35 56.8952 35 55.6468V44.5313C35 43.2829 34.8474 43.1533 33.3638 43.1533V43.1437ZM33.3638 56.7175H26.0891V56.295C26.2275 56.2758 26.3658 56.247 26.4994 56.2085C27.5631 55.9253 28.3932 55.2002 28.7271 54.2687H34.6947V55.642C34.6947 56.6983 34.6947 56.7175 33.359 56.7175H33.3638ZM25.1398 56.0117L25.0206 55.9925C25.0206 55.9925 24.992 55.9925 24.9681 55.9829H24.9395C24.8775 55.9685 24.8202 55.9589 24.7582 55.9445L24.6962 55.9301C24.4482 55.8724 24.2096 55.7812 23.9807 55.666L23.9377 55.642C23.8566 55.5988 23.7755 55.5507 23.6849 55.4931L23.6611 55.4787C23.6611 55.4787 23.6324 55.4595 23.6134 55.4499C23.5275 55.3923 23.4464 55.3299 23.3701 55.2627C23.3462 55.2434 23.3271 55.2242 23.3033 55.205L23.2794 55.181C23.2317 55.1378 23.1888 55.0946 23.1459 55.0466C23.1125 55.013 23.0791 54.9746 23.0457 54.9361C23.0028 54.8833 22.9646 54.8305 22.9217 54.7777C22.8787 54.7201 22.8406 54.6625 22.8072 54.6048C22.7786 54.5568 22.7499 54.5136 22.7261 54.4656C22.7022 54.4224 22.6832 54.3792 22.6641 54.336C22.6259 54.2543 22.5973 54.1775 22.5734 54.1103L22.5591 54.0671C22.5257 53.9614 22.5019 53.851 22.478 53.7166V53.6878C22.4542 53.5725 22.4494 53.4621 22.4494 53.3565C22.4494 52.8235 22.6307 52.3097 22.9741 51.868C22.9837 51.8584 22.9885 51.8488 23.0028 51.8248C23.0171 51.8056 23.0314 51.7816 23.0457 51.7624C23.0505 51.7624 23.0552 51.7528 23.06 51.7432L23.0839 51.7095C23.0839 51.7095 23.0934 51.6951 23.0982 51.6855L23.1697 51.5799C23.1697 51.5799 23.1793 51.5607 23.1793 51.5511C23.1983 51.5223 23.2127 51.4887 23.227 51.4599C23.2604 51.3974 23.2842 51.3302 23.3128 51.263L23.3271 51.2294C23.3462 51.1862 23.3605 51.1478 23.3748 51.1046C23.3987 51.0325 23.413 50.9557 23.4321 50.8741L23.4416 50.8261C23.4512 50.7925 23.4559 50.7636 23.4607 50.73C23.4798 50.5908 23.4893 50.466 23.4893 50.3411V49.9234C23.4893 49.8081 23.4798 49.6881 23.4607 49.5537C23.4559 49.5201 23.4512 49.4816 23.4416 49.448V49.424C23.4225 49.3472 23.4035 49.2656 23.3748 49.1791C23.3653 49.1407 23.351 49.0975 23.3367 49.0591C23.3176 49.0015 23.2937 48.9439 23.2651 48.8911C23.2651 48.8767 23.2651 48.8622 23.2556 48.8526L23.1936 48.7374V48.747C23.1936 48.747 23.184 48.723 23.184 48.7182L23.165 48.6846C23.165 48.6846 23.1554 48.675 23.1506 48.6702C23.0839 48.555 23.0266 48.4685 22.9646 48.3917C22.6211 47.95 22.4399 47.4362 22.4399 46.8984C22.4399 46.7976 22.4494 46.6824 22.4685 46.5479V46.5191C22.4685 46.5191 22.478 46.4807 22.4828 46.4615C22.5019 46.3607 22.5305 46.2598 22.5639 46.1494C22.7499 45.602 23.1459 45.1075 23.6801 44.7618C23.7326 44.7282 23.7899 44.6945 23.8423 44.6609C23.8853 44.6369 23.933 44.6129 23.9759 44.5889C24.0665 44.5457 24.1476 44.5073 24.2287 44.4737C24.2621 44.4593 24.3003 44.4449 24.3384 44.4353H24.3575C24.4338 44.4017 24.5149 44.3777 24.596 44.3536C24.639 44.344 24.6819 44.3296 24.7248 44.32C24.8155 44.3008 24.9061 44.2816 24.9967 44.2672H25.0254C25.0254 44.2672 25.0492 44.2576 25.0635 44.2576L25.1351 44.248C25.1685 44.248 25.1923 44.2144 25.1923 44.1808V43.4462H25.7647V44.176C25.7647 44.2096 25.7886 44.2384 25.8268 44.2432L25.9174 44.2528C26.0271 44.2672 26.1368 44.2864 26.2609 44.3104C26.2943 44.3152 26.3276 44.3248 26.3563 44.3344C26.4708 44.3632 26.5709 44.3921 26.6616 44.4257L26.6997 44.4401C26.7999 44.4785 26.9048 44.5265 27.0193 44.5793C27.0432 44.5889 27.0623 44.6033 27.0861 44.6129L27.1004 44.6225C27.1911 44.6705 27.2817 44.7234 27.3628 44.781C27.8112 45.0835 28.1547 45.482 28.3598 45.9381L28.3693 45.9621C28.3932 46.0198 28.4123 46.0726 28.4361 46.1302C28.4743 46.2406 28.5029 46.3511 28.522 46.4567C28.522 46.4759 28.5267 46.4903 28.5315 46.5095V46.5335C28.5554 46.6728 28.5649 46.7832 28.5649 46.8936C28.5649 47.4266 28.3836 47.9404 28.0402 48.3773C27.9782 48.4589 27.9209 48.5454 27.8541 48.6606C27.8494 48.6654 27.8446 48.6702 27.8398 48.6798L27.7492 48.8478C27.7492 48.8478 27.7444 48.8719 27.7444 48.8815C27.7158 48.9391 27.6919 48.9967 27.6729 49.0591C27.6633 49.0879 27.6538 49.1167 27.6442 49.1455V49.1647C27.6108 49.2512 27.587 49.3424 27.5679 49.448C27.5631 49.4768 27.5584 49.5057 27.5536 49.5393C27.5345 49.6785 27.525 49.7985 27.525 49.9138V50.3555C27.525 50.8453 27.6633 51.3206 27.9257 51.7191L27.9495 51.7576C27.9495 51.7576 27.9829 51.7864 28.0068 51.7864H34.6756V53.9662H28.5363C28.5077 53.9662 28.479 53.9854 28.4695 54.0143L28.4504 54.0719C28.1642 54.9794 27.3771 55.6708 26.342 55.9301C26.1941 55.9685 26.0462 55.9925 25.8935 56.0117L25.822 56.0213C25.7886 56.0213 25.76 56.0549 25.76 56.0885V56.7175H25.1875V56.0789C25.1875 56.0453 25.1494 56.0165 25.116 56.0117H25.1398ZM22.1966 46.4423C22.1918 46.4807 22.1823 46.5143 22.1775 46.5527C22.1584 46.6776 22.1537 46.7928 22.1537 46.8984C22.1537 47.4986 22.3588 48.0796 22.7452 48.5742C22.7642 48.5982 22.7786 48.6222 22.7976 48.6462H16.3053V46.1974H22.2586C22.2347 46.279 22.2157 46.3607 22.2014 46.4423H22.1966ZM23.0886 49.2272L23.0982 49.2608C23.122 49.3424 23.1459 49.424 23.1602 49.5201C23.1602 49.5441 23.1697 49.5681 23.1745 49.5921C23.1936 49.7169 23.2031 49.8226 23.2031 49.9234V50.3411C23.2031 50.4467 23.1936 50.5572 23.1745 50.682C23.1745 50.7108 23.165 50.7348 23.1602 50.7636L23.1506 50.8069C23.1363 50.8741 23.122 50.9461 23.0982 51.0085C23.0839 51.0517 23.0695 51.0901 23.0505 51.143C23.0266 51.2006 23.0028 51.263 22.9741 51.3158C22.9551 51.359 22.9312 51.4022 22.9074 51.4455C22.8978 51.4599 22.893 51.4695 22.8835 51.4839H16.3053V48.9535H22.9789C23.0171 49.0351 23.0505 49.1071 23.0791 49.184C23.0839 49.1984 23.0886 49.2128 23.0934 49.2272H23.0886ZM22.1537 53.3661C22.1537 53.4669 22.1632 53.5677 22.1775 53.6878V53.7358C22.1966 53.8126 22.2109 53.8846 22.23 53.9662H16.3053V51.7864H22.6736C22.3349 52.2617 22.1584 52.8043 22.1584 53.3661H22.1537ZM24.9109 43.9791H24.8918C24.7964 43.9983 24.7057 44.0175 24.6151 44.0415C24.5674 44.0511 24.5245 44.0656 24.4768 44.08C24.3909 44.104 24.3098 44.1328 24.2287 44.1616L24.1906 44.176C24.1906 44.176 24.1476 44.1904 24.1238 44.2C24.0188 44.2432 23.9139 44.2912 23.8137 44.344C23.7851 44.3584 23.7565 44.3776 23.7278 44.3921L23.6945 44.4113C23.6324 44.4497 23.5657 44.4881 23.5084 44.5265C23.4941 44.5361 23.4846 44.5409 23.4702 44.5505C23.4512 44.5601 23.4273 44.5745 23.4082 44.5889C23.3415 44.6369 23.2747 44.6897 23.2127 44.7378L23.184 44.7618C23.1268 44.8146 23.0695 44.8674 23.0028 44.9298L22.9837 44.949C22.9264 45.0066 22.874 45.0643 22.8263 45.1219L22.8024 45.1459C22.6927 45.2803 22.5925 45.4244 22.5067 45.5732C22.4971 45.5924 22.4828 45.6164 22.4733 45.6356L22.4542 45.6693C22.4303 45.7125 22.4112 45.7557 22.3874 45.7989C22.3779 45.8229 22.3635 45.8517 22.3492 45.8853V45.8949H16.291V44.2432C16.291 43.9119 16.3482 43.7006 16.4627 43.5854C16.6488 43.4029 17.0161 43.4173 17.5694 43.4318C17.7507 43.4366 17.9558 43.4414 18.18 43.4414H24.9013V43.9743L24.9109 43.9791ZM16.3005 54.2687H22.3158C22.3158 54.2687 22.3254 54.2927 22.3302 54.3071C22.354 54.3696 22.3779 54.4272 22.4065 54.4896C22.4303 54.5376 22.4494 54.5856 22.4733 54.6289C22.521 54.7153 22.5687 54.7969 22.6164 54.8689C22.6402 54.9073 22.6688 54.9409 22.6975 54.9794L22.7165 55.0034C22.7499 55.0466 22.7881 55.0946 22.8358 55.1474C22.8692 55.1858 22.8978 55.2242 22.9312 55.2578C23.0075 55.3395 23.0791 55.4067 23.1506 55.4691C23.165 55.4835 23.1793 55.4931 23.1936 55.5075L23.227 55.5315C23.3033 55.594 23.3748 55.6468 23.4464 55.6996C23.475 55.7188 23.4989 55.738 23.5275 55.7524C23.7374 55.8916 23.9664 56.0069 24.2096 56.0933L24.243 56.1077C24.4625 56.1893 24.6867 56.247 24.9061 56.2854V56.7175H18.1848C17.9606 56.7175 17.7555 56.7223 17.5742 56.7271C17.0208 56.7415 16.6535 56.7559 16.4675 56.5735C16.3482 56.4582 16.2958 56.2518 16.2958 55.9157V54.2639L16.3005 54.2687ZM27.8494 49.9138C27.8494 49.8129 27.8589 49.7073 27.8732 49.5873C27.8732 49.5633 27.8828 49.5393 27.8875 49.5009C27.9018 49.4144 27.9257 49.3328 27.9495 49.2512L27.9591 49.2272C27.9591 49.2272 27.9686 49.1984 27.9734 49.184C27.9972 49.1119 28.0306 49.0351 28.0688 48.9583H34.6947V51.4887H28.1547C27.9543 51.1526 27.8446 50.7636 27.8446 50.3603V49.9186L27.8494 49.9138ZM28.3025 48.5742C28.6842 48.0796 28.8893 47.5034 28.8893 46.8984C28.8893 46.7928 28.8797 46.6824 28.8654 46.5527C28.8654 46.5191 28.8559 46.4855 28.8511 46.4519C28.8368 46.3655 28.8177 46.2838 28.7939 46.207H34.6995V48.6558H28.2501C28.2691 48.627 28.2835 48.603 28.3025 48.579V48.5742ZM28.5744 45.6548L28.5601 45.626C28.5601 45.626 28.541 45.5876 28.5315 45.5684C28.4886 45.4916 28.4409 45.4196 28.3932 45.3476L28.3645 45.3091C28.3216 45.2515 28.2787 45.1939 28.231 45.1363L28.188 45.0883C28.1451 45.0403 28.0974 44.9874 28.0497 44.9394L28.002 44.8962C27.9591 44.8578 27.9161 44.8194 27.8637 44.7714L27.8446 44.757L27.8017 44.7186C27.773 44.6945 27.7396 44.6705 27.7063 44.6465L27.587 44.5601C27.587 44.5601 27.5631 44.5457 27.5536 44.5409C27.5441 44.5409 27.5393 44.5313 27.5298 44.5265C27.4487 44.4737 27.3676 44.4257 27.2865 44.3825L27.2722 44.3729C27.2722 44.3729 27.2245 44.344 27.2006 44.3344C27.0909 44.2768 26.9764 44.2288 26.8667 44.1856C26.8524 44.1808 26.8381 44.176 26.8238 44.1712L26.7951 44.1616C26.6997 44.128 26.5995 44.0944 26.4994 44.0704C26.466 44.0608 26.4326 44.0511 26.3992 44.0463C26.2799 44.0175 26.1798 43.9983 26.0796 43.9839V43.4606H33.3543C34.6899 43.4606 34.6899 43.4798 34.6899 44.5361V45.9093H28.6842V45.8949L28.6698 45.8757L28.6412 45.8037C28.6221 45.7557 28.5983 45.7125 28.5697 45.6597L28.5744 45.6548Z" fill="#9F8F33"/>
<path d="M14 7.9339H18V10.7694C18 12.1731 16.8694 12.8926 16.0036 12.8926C15.1377 12.8926 14.0072 12.1731 14.0072 10.7694V7.9339H14Z" fill="#881A51"/>
<path d="M14 24.6638C14 26.0514 15.1326 26.7769 16 26.7769C16.8674 26.7769 18 26.0584 18 24.6638V21.8182H14V24.6638Z" fill="#881A51"/>
<path d="M14 17.7086C14 19.1142 15.1326 19.8347 16 19.8347C16.8674 19.8347 18 19.1142 18 17.7086V14.876H14V17.7086Z" fill="#881A51"/>
<path d="M8 17.7086C8 19.1142 9.12857 19.8347 9.99286 19.8347C10.8571 19.8347 12 19.1142 12 17.7086V14.876H8V17.7086Z" fill="#881A51"/>
<path d="M20 14.876V17.7086C20 19.1142 21.1357 19.8347 22 19.8347C22.8643 19.8347 24 19.1142 24 17.7086V14.876H20Z" fill="#881A51"/>
<path d="M92.9765 10.5136C92.9765 12.0807 91.7794 13.2029 89.7006 13.2029C89.2373 13.2029 88.9541 13.1384 88.8768 13.1061V12.8224C90.6596 12.8997 91.4962 12.3258 91.4962 10.6425C91.4962 9.0625 90.9621 8.51432 89.6298 8.51432C89.0957 8.51432 88.6323 8.55302 88.4328 8.59816V15.6277C88.4328 16.2469 88.4714 16.3242 88.8447 16.3758L89.617 16.4855V16.7112H86.0064V16.4855L86.605 16.3758C86.9139 16.3242 87.0169 16.2533 87.0169 15.6277V9.17214C87.0169 8.55302 86.9396 8.50142 86.7208 8.46273L86 8.3144V8.08868H89.7199C91.8631 8.08868 92.9829 8.94642 92.9829 10.5136H92.9765ZM110.752 16.4081L111.029 16.4855V16.7112H108.983C108.011 15.5181 107.039 14.0348 106.337 12.7063H105.366V15.6277C105.366 16.2469 105.417 16.3113 105.777 16.3758L106.402 16.4855V16.7112H102.926V16.4855L103.525 16.3758C103.834 16.3242 103.937 16.2533 103.937 15.6277V9.17214C103.937 8.55302 103.827 8.48853 103.525 8.42403L102.926 8.3144V8.08868H106.73C108.835 8.08868 109.774 8.83678 109.774 10.2749C109.774 11.1972 109.04 11.9904 107.657 12.3774V12.4161C108.365 13.5705 109.427 15.1763 110.199 16.0598C110.347 16.234 110.489 16.3436 110.746 16.4081H110.752ZM108.307 10.3975C108.307 8.88192 107.76 8.50787 106.563 8.50787C105.99 8.50787 105.591 8.54657 105.366 8.59171V12.2548C105.366 12.2548 105.752 12.3064 106.125 12.3064C107.67 12.3064 108.307 11.7582 108.307 10.4039V10.3975ZM102.161 12.3387C102.161 15.5632 100.114 16.8531 97.945 16.8531C95.6538 16.8531 93.8582 15.3633 93.8582 12.5128C93.8582 9.28822 95.9048 7.9339 98.0737 7.9339C100.365 7.9339 102.161 9.48814 102.161 12.3387ZM100.667 12.5515C100.667 10.5587 100.082 8.38534 97.9514 8.38534C96.1558 8.38534 95.3449 9.64292 95.3449 12.3064C95.3449 14.2992 95.9306 16.4081 98.048 16.4081C99.8436 16.4081 100.667 15.215 100.667 12.5515ZM110.965 8.08868L110.843 10.6038H111.164C111.402 9.90734 111.525 9.61068 111.789 9.17214C112.188 8.52722 112.297 8.48853 113.636 8.48853H113.887V15.6277C113.887 16.2469 113.797 16.3113 113.475 16.3758L112.838 16.4855V16.7112H116.365V16.4855L115.727 16.3758C115.367 16.3113 115.315 16.2533 115.315 15.6277V8.48853H115.566C116.912 8.48853 117.015 8.52722 117.414 9.17214C117.677 9.61068 117.8 9.90734 118.038 10.6038H118.36L118.237 8.08868H110.958H110.965ZM144.56 16.3952L144.921 16.4855V16.7112H141.529V16.4855L141.902 16.3952C142.25 16.3113 142.353 16.1824 142.353 15.9695C142.353 15.7825 142.263 15.4601 142.14 15.1376L141.58 13.6543H138.652L138.131 15.1376C138.008 15.473 137.97 15.7374 137.97 15.9115C137.97 16.1953 138.118 16.3371 138.433 16.3952L138.871 16.4855V16.7112H136.29V16.4855L136.676 16.3952C137.049 16.3113 137.14 16.2082 137.551 15.1118L140.209 8.08868H140.943L143.723 15.2537C144.071 16.1372 144.232 16.3113 144.56 16.3952ZM141.432 13.248L140.113 9.73966H140.049L138.8 13.248H141.432ZM151.678 14.0219C151.414 14.8409 151.093 15.4407 150.893 15.6987C150.52 16.1953 150.256 16.2855 149.085 16.2855C147.675 16.2855 147.636 16.1372 147.636 15.1054V9.17214C147.636 8.55302 147.714 8.50142 148.048 8.43693L148.724 8.3144V8.08868H145.197V8.3144L145.796 8.42403C146.105 8.48853 146.208 8.54657 146.208 9.17214V15.6277C146.208 16.2469 146.098 16.3242 145.796 16.3758L145.197 16.4855V16.7112H151.839L152 14.0219H151.678ZM136.367 13.1642H133.04V13.3899L133.664 13.5124C133.986 13.5769 134.076 13.622 134.076 14.2476V16.0985C133.729 16.2597 133.239 16.4081 132.493 16.4081C130.375 16.4081 129.539 15.0538 129.539 12.1645C129.539 9.51394 130.575 8.38534 132.531 8.38534C133.729 8.38534 133.928 8.53367 134.34 9.10764C134.527 9.36561 134.79 9.84285 135.086 10.649H135.395L135.222 8.17252C134.559 8.02419 133.812 7.9339 132.602 7.9339C130.195 7.9339 128.052 9.12699 128.052 12.4612C128.052 15.473 129.796 16.8531 132.525 16.8531C133.774 16.8531 134.816 16.6402 135.505 16.4661V14.2412C135.505 13.622 135.595 13.5576 135.917 13.4802L136.367 13.3834V13.1577V13.1642ZM124.699 8.3144L125.349 8.39824C125.787 8.46273 125.896 8.54657 125.896 9.29467V13.9187C125.896 15.3762 125.22 16.2597 123.566 16.2597C121.912 16.2597 121.159 15.5245 121.159 14.0348V9.17214C121.159 8.55302 121.211 8.50142 121.571 8.42403L122.144 8.3144V8.08868H118.726V8.3144L119.325 8.42403C119.647 8.48853 119.737 8.54657 119.737 9.17214V13.9123C119.737 15.9889 121.069 16.8595 123.154 16.8595C125.497 16.8595 126.43 15.5439 126.43 14.009V9.29467C126.43 8.54657 126.604 8.47563 126.977 8.39824L127.441 8.3144V8.08868H124.699V8.3144Z" fill="#8CB6DF"/>
<path d="M150 51.5703H121C119.895 51.5703 119 52.4657 119 53.5703V90.2314C119 91.336 119.895 92.2314 121 92.2314H150C151.105 92.2314 152 91.336 152 90.2314V53.5703C152 52.4657 151.105 51.5703 150 51.5703Z" fill="white"/>
<path d="M98.0165 63.4711H80.9835C79.888 63.4711 79 64.3591 79 65.4545C79 66.55 79.888 67.438 80.9835 67.438H98.0165C99.112 67.438 100 66.55 100 65.4545C100 64.3591 99.112 63.4711 98.0165 63.4711Z" fill="white"/>
<path d="M73.0165 63.4711H44.9835C43.888 63.4711 43 64.3591 43 65.4545C43 66.55 43.888 67.438 44.9835 67.438H73.0165C74.112 67.438 75 66.55 75 65.4545C75 64.3591 74.112 63.4711 73.0165 63.4711Z" fill="white"/>
<path d="M109.017 51.5703H90.9835C89.888 51.5703 89 52.4583 89 53.5537C89 54.6492 89.888 55.5372 90.9835 55.5372H109.017C110.112 55.5372 111 54.6492 111 53.5537C111 52.4583 110.112 51.5703 109.017 51.5703Z" fill="white"/>
<path d="M83.0165 51.5703H70.9835C69.888 51.5703 69 52.4583 69 53.5537C69 54.6492 69.888 55.5372 70.9835 55.5372H83.0165C84.112 55.5372 85 54.6492 85 53.5537C85 52.4583 84.112 51.5703 83.0165 51.5703Z" fill="white"/>
<path d="M63.0165 51.5703H44.9835C43.888 51.5703 43 52.4583 43 53.5537C43 54.6492 43.888 55.5372 44.9835 55.5372H63.0165C64.112 55.5372 65 54.6492 65 53.5537C65 52.4583 64.112 51.5703 63.0165 51.5703Z" fill="white"/>
<path d="M83.0165 39.6694H44.9835C43.888 39.6694 43 40.5575 43 41.6529C43 42.7483 43.888 43.6364 44.9835 43.6364H83.0165C84.112 43.6364 85 42.7483 85 41.6529C85 40.5575 84.112 39.6694 83.0165 39.6694Z" fill="white"/>
<path d="M100.017 27.7686H44.9835C43.888 27.7686 43 28.6566 43 29.7521C43 30.8475 43.888 31.7356 44.9835 31.7356H100.017C101.112 31.7356 102 30.8475 102 29.7521C102 28.6566 101.112 27.7686 100.017 27.7686Z" fill="white"/>
</svg>
