<svg width="110" height="24" viewBox="0 0 110 24" fill="none" xmlns="http://www.w3.org/2000/svg">
<path d="M69.3377 2.99311V23.7145C69.3377 23.8722 69.4661 24 69.6245 24C69.7829 24 69.9114 23.8722 69.9114 23.7145V2.99311C69.9114 2.83542 69.7829 2.70758 69.6245 2.70758C69.4661 2.70758 69.3377 2.83542 69.3377 2.99311Z" fill="white"/>
<path d="M75.2204 5.42895H73.454L73.0881 6.25599H72.5995L74.1048 2.94782H74.5755L76.0848 6.25599H75.5863L75.2204 5.42895ZM75.0542 5.05087L74.3382 3.43026L73.6221 5.05087H75.0562H75.0542Z" fill="white"/>
<path d="M78.8323 4.58418H79.2872V5.87397C79.123 6.00985 78.9312 6.11421 78.7136 6.1851C78.496 6.25796 78.2665 6.2934 78.0292 6.2934C77.6929 6.2934 77.3922 6.22055 77.1232 6.07286C76.8542 5.92714 76.6426 5.72432 76.4903 5.46833C76.338 5.21234 76.2608 4.92288 76.2608 4.6019C76.2608 4.28093 76.338 3.99147 76.4903 3.73351C76.6426 3.47555 76.8562 3.27273 77.1272 3.12898C77.3982 2.98326 77.7028 2.91237 78.041 2.91237C78.3061 2.91237 78.5474 2.95569 78.765 3.04234C78.9826 3.12898 79.1665 3.255 79.3169 3.42238L79.0221 3.71579C78.7571 3.4598 78.4347 3.33377 78.0588 3.33377C77.8057 3.33377 77.5782 3.38891 77.3784 3.49721C77.1786 3.60551 77.0204 3.75714 76.9057 3.95011C76.7909 4.14309 76.7355 4.36167 76.7355 4.60387C76.7355 4.84608 76.7929 5.06072 76.9057 5.25369C77.0204 5.44667 77.1766 5.60026 77.3784 5.71054C77.5802 5.82081 77.8037 5.87594 78.0549 5.87594C78.3516 5.87594 78.6127 5.80505 78.8323 5.66328V4.58418Z" fill="white"/>
<path d="M82.6063 5.84444V6.25599H80.1951V2.94782H82.5391V3.35937H80.6698V4.37545H82.3353V4.77716H80.6698V5.84444H82.6063ZM81.8072 2.68001L81.3701 2.31572L80.9329 2.68001H80.5195L81.1505 2.06564H81.5876L82.2186 2.68001H81.8052H81.8072Z" fill="white"/>
<path d="M86.232 2.94782V6.25599H85.8424L83.8485 3.79061V6.25599H83.3738V2.94782H83.7635L85.7573 5.41516V2.94782H86.232Z" fill="white"/>
<path d="M87.8145 6.07483C87.5474 5.92911 87.3378 5.72629 87.1855 5.4703C87.0331 5.21431 86.958 4.92484 86.958 4.60387C86.958 4.2829 87.0331 3.99344 87.1855 3.73745C87.3378 3.48146 87.5474 3.27863 87.8164 3.13292C88.0855 2.9872 88.3861 2.91237 88.7184 2.91237C88.9775 2.91237 89.2149 2.95569 89.4305 3.04234C89.6461 3.12898 89.8301 3.25697 89.9804 3.42829L89.6718 3.72563C89.4226 3.46373 89.1101 3.33377 88.7362 3.33377C88.489 3.33377 88.2655 3.38891 88.0677 3.49918C87.8679 3.60945 87.7116 3.76108 87.6008 3.95602C87.4881 4.149 87.4327 4.36561 87.4327 4.60584C87.4327 4.84608 87.4881 5.06268 87.6008 5.25566C87.7136 5.44864 87.8699 5.60223 88.0677 5.7125C88.2674 5.82278 88.489 5.87791 88.7362 5.87791C89.1061 5.87791 89.4186 5.74598 89.6718 5.48014L89.9804 5.77749C89.8281 5.94683 89.6441 6.0768 89.4266 6.16541C89.209 6.25402 88.9716 6.29734 88.7125 6.29734C88.3802 6.29734 88.0795 6.22448 87.8125 6.0768L87.8145 6.07483Z" fill="white"/>
<path d="M90.6589 2.94782H91.1336V6.25599H90.6589V2.94782Z" fill="white"/>
<path d="M94.247 5.42895H92.4806L92.1147 6.25599H91.6261L93.1314 2.94782H93.6022L95.1114 6.25599H94.6129L94.247 5.42895ZM94.0809 5.05087L93.3648 3.43026L92.6488 5.05087H94.0828H94.0809Z" fill="white"/>
<path d="M99.1921 3.25501C99.4393 3.4598 99.562 3.74139 99.562 4.09977C99.562 4.45816 99.4393 4.74171 99.1921 4.94651C98.9448 5.1513 98.6066 5.25369 98.1773 5.25369H97.3565V6.25599H96.8817V2.94782H98.1773C98.6066 2.94782 98.9468 3.05021 99.1921 3.25501ZM98.8519 4.65113C99.0101 4.52314 99.0892 4.34001 99.0892 4.09977C99.0892 3.85953 99.0101 3.6764 98.8519 3.55038C98.6936 3.42238 98.4642 3.35937 98.1635 3.35937H97.3565V4.84214H98.1635C98.4642 4.84214 98.6936 4.77913 98.8519 4.65113Z" fill="white"/>
<path d="M102.211 5.42895H100.444L100.078 6.25599H99.5897L101.095 2.94782H101.566L103.075 6.25599H102.576L102.211 5.42895ZM102.044 5.05087L101.328 3.43026L100.612 5.05087H102.046H102.044Z" fill="white"/>
<path d="M105.791 6.25599L105.075 5.23991C104.986 5.24582 104.916 5.24975 104.865 5.24975H104.044V6.25599H103.569V2.94782H104.865C105.296 2.94782 105.634 3.05021 105.88 3.25501C106.127 3.4598 106.25 3.74139 106.25 4.09977C106.25 4.35576 106.186 4.57237 106.06 4.75156C105.933 4.93075 105.753 5.06269 105.518 5.14342L106.305 6.25402H105.787L105.791 6.25599ZM105.538 4.65507C105.696 4.52511 105.775 4.34198 105.775 4.10174C105.775 3.8615 105.696 3.67837 105.538 3.55235C105.379 3.42435 105.15 3.36134 104.849 3.36134H104.042V4.85002H104.849C105.15 4.85002 105.379 4.78503 105.538 4.65704V4.65507Z" fill="white"/>
<path d="M109.136 5.42895H107.369L107.003 6.25599H106.515L108.02 2.94782H108.491L110 6.25599H109.502L109.136 5.42895ZM108.969 5.05087L108.253 3.43026L107.537 5.05087H108.971H108.969Z" fill="white"/>
<path d="M75.2204 11.0981H73.454L73.0881 11.9252H72.5995L74.1048 8.617H74.5755L76.0848 11.9252H75.5863L75.2204 11.0981ZM75.0542 10.7201L74.3382 9.09944L73.6221 10.7201H75.0562H75.0542Z" fill="white"/>
<path d="M80.0764 11.9252L79.3604 10.9091C79.2714 10.915 79.2021 10.9189 79.1507 10.9189H78.3298V11.9252H77.8551V8.617H79.1507C79.5819 8.617 79.9202 8.7194 80.1654 8.92419C80.4127 9.12898 80.5353 9.41057 80.5353 9.76895C80.5353 10.0249 80.472 10.2415 80.3454 10.4207C80.2188 10.5999 80.0388 10.7319 79.8035 10.8126L80.5907 11.9232H80.0725L80.0764 11.9252ZM79.8232 10.3243C79.9815 10.1943 80.0606 10.0112 80.0606 9.77092C80.0606 9.53069 79.9815 9.34756 79.8232 9.21956C79.665 9.09157 79.4355 9.02855 79.1349 9.02855H78.3279V10.5172H79.1349C79.4355 10.5172 79.665 10.4522 79.8232 10.3243Z" fill="white"/>
<path d="M83.716 11.5156V11.9271H81.3048V8.61897H83.6487V9.03052H81.7795V10.0466H83.445V10.4483H81.7795V11.5156H83.716Z" fill="white"/>
<path d="M84.9602 10.1805H86.6257V10.5862H84.9602V11.9232H84.4855V8.61503H86.8294V9.02658H84.9602V10.1805Z" fill="white"/>
<path d="M88.0538 11.744C87.7848 11.5983 87.5732 11.3955 87.4208 11.1375C87.2666 10.8796 87.1914 10.5921 87.1914 10.2731C87.1914 9.95405 87.2685 9.66656 87.4208 9.4086C87.5751 9.15064 87.7848 8.94782 88.0538 8.8021C88.3228 8.65638 88.6255 8.58156 88.9597 8.58156C89.294 8.58156 89.5927 8.65441 89.8617 8.8021C90.1307 8.94782 90.3404 9.15064 90.4927 9.40663C90.645 9.66262 90.7202 9.95208 90.7202 10.2731C90.7202 10.594 90.645 10.8835 90.4927 11.1395C90.3404 11.3955 90.1307 11.5983 89.8617 11.744C89.5927 11.8897 89.2921 11.9646 88.9597 11.9646C88.6274 11.9646 88.3228 11.8917 88.0538 11.744ZM89.6184 11.3777C89.8123 11.2675 89.9666 11.1159 90.0793 10.9209C90.1921 10.7279 90.2474 10.5113 90.2474 10.2711C90.2474 10.0308 90.1921 9.81424 90.0793 9.62127C89.9666 9.42829 89.8143 9.2747 89.6184 9.16442C89.4246 9.05415 89.205 8.99901 88.9617 8.99901C88.7184 8.99901 88.4969 9.05415 88.2991 9.16442C88.1013 9.2747 87.947 9.42632 87.8343 9.62127C87.7215 9.81621 87.6661 10.0308 87.6661 10.2711C87.6661 10.5113 87.7215 10.7279 87.8343 10.9209C87.947 11.1139 88.1013 11.2675 88.2991 11.3777C88.4969 11.488 88.7184 11.5432 88.9617 11.5432C89.205 11.5432 89.4246 11.488 89.6184 11.3777Z" fill="white"/>
<path d="M93.6674 11.9252L92.9514 10.9091C92.8624 10.915 92.7932 10.9189 92.7417 10.9189H91.9209V11.9252H91.4461V8.617H92.7417C93.171 8.617 93.5112 8.7194 93.7565 8.92419C94.0037 9.12898 94.1264 9.41057 94.1264 9.76895C94.1264 10.0249 94.063 10.2415 93.9365 10.4207C93.8099 10.5999 93.6299 10.7319 93.3965 10.8126L94.1837 11.9232H93.6655L93.6674 11.9252ZM93.4162 10.3243C93.5745 10.1943 93.6536 10.0112 93.6536 9.77092C93.6536 9.53069 93.5745 9.34756 93.4162 9.21956C93.258 9.09157 93.0285 9.02855 92.7279 9.02855H91.9209V10.5172H92.7279C93.0285 10.5172 93.258 10.4522 93.4162 10.3243Z" fill="white"/>
<path d="M97.9776 11.9252L97.9736 9.51493L96.7729 11.5235H96.5554L95.3547 9.52872V11.9252H94.8998V8.617H95.2894L96.676 10.9426L98.0428 8.617H98.4325L98.4365 11.9252H97.9776Z" fill="white"/>
<path d="M101.546 11.0981H99.7795L99.4136 11.9252H98.925L100.43 8.617H100.901L102.41 11.9252H101.912L101.546 11.0981ZM101.382 10.7201L100.666 9.09944L99.9497 10.7201H101.384H101.382Z" fill="white"/>
<path d="M73.7626 14.6997H72.6232V14.2882H75.3707V14.6997H74.2314V17.5963H73.7606V14.6997H73.7626Z" fill="white"/>
<path d="M78.3002 17.1848V17.5963H75.8889V14.2882H78.2329V14.6997H76.3637V15.7158H78.0292V16.1175H76.3637V17.1848H78.3002Z" fill="white"/>
<path d="M79.6413 17.4132C79.3742 17.2675 79.1646 17.0647 79.0123 16.8087C78.8599 16.5527 78.7848 16.2632 78.7848 15.9422C78.7848 15.6213 78.8599 15.3318 79.0123 15.0758C79.1646 14.8198 79.3742 14.617 79.6432 14.4713C79.9123 14.3256 80.2129 14.2507 80.5452 14.2507C80.8043 14.2507 81.0417 14.2941 81.2573 14.3807C81.4729 14.4673 81.6569 14.5953 81.8072 14.7667L81.4986 15.064C81.2494 14.8021 80.9369 14.6721 80.563 14.6721C80.3158 14.6721 80.0923 14.7273 79.8944 14.8375C79.6947 14.9478 79.5404 15.0994 79.4276 15.2944C79.3149 15.4874 79.2595 15.704 79.2595 15.9442C79.2595 16.1844 79.3149 16.4011 79.4276 16.594C79.5404 16.787 79.6966 16.9406 79.8944 17.0509C80.0942 17.1611 80.3177 17.2163 80.563 17.2163C80.9329 17.2163 81.2454 17.0843 81.4986 16.8185L81.8072 17.1159C81.6549 17.2852 81.4709 17.4152 81.2553 17.5038C81.0397 17.5924 80.8004 17.6357 80.5413 17.6357C80.209 17.6357 79.9083 17.5628 79.6413 17.4152V17.4132Z" fill="white"/>
<path d="M85.3439 14.2882V17.5963H84.9542L82.9604 15.1309V17.5963H82.4857V14.2882H82.8753L84.8692 16.7535V14.2882H85.3439Z" fill="white"/>
<path d="M86.9342 17.4132C86.6652 17.2675 86.4536 17.0647 86.3013 16.8067C86.147 16.5487 86.0718 16.2612 86.0718 15.9422C86.0718 15.6232 86.149 15.3357 86.3013 15.0778C86.4556 14.8198 86.6652 14.617 86.9342 14.4713C87.2033 14.3256 87.5059 14.2507 87.8402 14.2507C88.1745 14.2507 88.4732 14.3236 88.7422 14.4713C89.0112 14.617 89.2208 14.8198 89.3732 15.0758C89.5255 15.3318 89.6006 15.6213 89.6006 15.9422C89.6006 16.2632 89.5255 16.5527 89.3732 16.8087C89.2208 17.0647 89.0112 17.2675 88.7422 17.4132C88.4732 17.5589 88.1725 17.6337 87.8402 17.6337C87.5079 17.6337 87.2033 17.5609 86.9342 17.4132ZM88.4969 17.0469C88.6907 16.9367 88.845 16.785 88.9578 16.5901C89.0705 16.3971 89.1259 16.1805 89.1259 15.9403C89.1259 15.7 89.0705 15.4834 88.9578 15.2905C88.845 15.0975 88.6927 14.9439 88.4969 14.8336C88.303 14.7233 88.0835 14.6682 87.8402 14.6682C87.5969 14.6682 87.3753 14.7233 87.1775 14.8336C86.9797 14.9439 86.8255 15.0955 86.7127 15.2905C86.6 15.4834 86.5446 15.7 86.5446 15.9403C86.5446 16.1805 86.6 16.3971 86.7127 16.5901C86.8255 16.7831 86.9797 16.9367 87.1775 17.0469C87.3753 17.1572 87.5969 17.2123 87.8402 17.2123C88.0835 17.2123 88.303 17.1572 88.4969 17.0469Z" fill="white"/>
<path d="M90.3266 14.2882H90.8013V17.1848H92.5993V17.5963H90.3266V14.2882Z" fill="white"/>
<path d="M93.6773 17.4132C93.4083 17.2675 93.1967 17.0647 93.0444 16.8067C92.8901 16.5487 92.8149 16.2612 92.8149 15.9422C92.8149 15.6232 92.8921 15.3357 93.0444 15.0778C93.1987 14.8198 93.4083 14.617 93.6773 14.4713C93.9463 14.3256 94.249 14.2507 94.5833 14.2507C94.9176 14.2507 95.2162 14.3236 95.4853 14.4713C95.7543 14.617 95.9639 14.8198 96.1162 15.0758C96.2686 15.3318 96.3437 15.6213 96.3437 15.9422C96.3437 16.2632 96.2686 16.5527 96.1162 16.8087C95.9639 17.0647 95.7543 17.2675 95.4853 17.4132C95.2162 17.5589 94.9156 17.6337 94.5833 17.6337C94.251 17.6337 93.9463 17.5609 93.6773 17.4132ZM95.242 17.0469C95.4358 16.9367 95.5901 16.785 95.7028 16.5901C95.8156 16.3971 95.871 16.1805 95.871 15.9403C95.871 15.7 95.8156 15.4834 95.7028 15.2905C95.5901 15.0975 95.4378 14.9439 95.242 14.8336C95.0481 14.7233 94.8286 14.6682 94.5853 14.6682C94.342 14.6682 94.1204 14.7233 93.9226 14.8336C93.7248 14.9439 93.5705 15.0955 93.4578 15.2905C93.345 15.4834 93.2896 15.7 93.2896 15.9403C93.2896 16.1805 93.345 16.3971 93.4578 16.5901C93.5705 16.7831 93.7248 16.9367 93.9226 17.0469C94.1204 17.1572 94.342 17.2123 94.5853 17.2123C94.8286 17.2123 95.0481 17.1572 95.242 17.0469ZM94.874 13.404H95.4536L94.6565 14.0184H94.2292L94.874 13.404Z" fill="white"/>
<path d="M99.374 15.9225H99.829V17.2123C99.6648 17.3482 99.473 17.4526 99.2554 17.5235C99.0378 17.5963 98.8083 17.6318 98.571 17.6318C98.2347 17.6318 97.9341 17.5589 97.665 17.4112C97.396 17.2655 97.1844 17.0627 97.0321 16.8067C96.8778 16.5507 96.8026 16.2612 96.8026 15.9403C96.8026 15.6193 96.8798 15.3298 97.0321 15.0699C97.1864 14.8119 97.398 14.6111 97.669 14.4654C97.94 14.3197 98.2446 14.2488 98.5828 14.2488C98.8479 14.2488 99.0892 14.2921 99.3068 14.3787C99.5244 14.4654 99.7083 14.5914 99.8587 14.7588L99.5639 15.0522C99.2989 14.7962 98.9765 14.6702 98.6006 14.6702C98.3475 14.6702 98.12 14.7253 97.9202 14.8336C97.7204 14.9419 97.5622 15.0935 97.4474 15.2865C97.3327 15.4795 97.2773 15.6981 97.2773 15.9403C97.2773 16.1825 97.3347 16.3971 97.4474 16.5901C97.5602 16.7831 97.7184 16.9367 97.9202 17.0469C98.122 17.1572 98.3475 17.2123 98.5967 17.2123C98.8934 17.2123 99.1545 17.1415 99.376 16.9997V15.9225H99.374Z" fill="white"/>
<path d="M100.735 14.2882H101.21V17.5963H100.735V14.2882Z" fill="white"/>
<path d="M102.792 17.4132C102.525 17.2675 102.315 17.0647 102.163 16.8087C102.011 16.5527 101.936 16.2632 101.936 15.9422C101.936 15.6213 102.011 15.3318 102.163 15.0758C102.315 14.8198 102.525 14.617 102.794 14.4713C103.063 14.3256 103.364 14.2507 103.696 14.2507C103.955 14.2507 104.193 14.2941 104.408 14.3807C104.624 14.4673 104.808 14.5953 104.958 14.7667L104.649 15.064C104.4 14.8021 104.088 14.6721 103.714 14.6721C103.467 14.6721 103.243 14.7273 103.045 14.8375C102.845 14.9478 102.689 15.0994 102.578 15.2944C102.466 15.4874 102.41 15.704 102.41 15.9442C102.41 16.1844 102.466 16.4011 102.578 16.594C102.691 16.787 102.847 16.9406 103.045 17.0509C103.245 17.1611 103.469 17.2163 103.714 17.2163C104.084 17.2163 104.396 17.0843 104.649 16.8185L104.958 17.1159C104.806 17.2852 104.622 17.4152 104.406 17.5038C104.191 17.5924 103.951 17.6357 103.692 17.6357C103.36 17.6357 103.059 17.5628 102.792 17.4152V17.4132Z" fill="white"/>
<path d="M107.674 16.7693H105.907L105.542 17.5963H105.053L106.558 14.2882H107.029L108.538 17.5963H108.04L107.674 16.7693ZM107.508 16.3912L106.792 14.7706L106.076 16.3912H107.51H107.508Z" fill="white"/>
<path d="M73.1039 19.9573H74.5043C74.8564 19.9573 75.167 20.0263 75.4399 20.1661C75.7129 20.3039 75.9226 20.4988 76.0729 20.7489C76.2232 20.999 76.2984 21.2865 76.2984 21.6114C76.2984 21.9363 76.2232 22.2238 76.0729 22.4739C75.9226 22.724 75.7109 22.9189 75.4399 23.0568C75.1689 23.1946 74.8564 23.2655 74.5043 23.2655H73.1039V19.9573ZM74.4747 22.854C74.7437 22.854 74.981 22.8028 75.1848 22.6984C75.3885 22.594 75.5468 22.4483 75.6575 22.2612C75.7683 22.0742 75.8237 21.8576 75.8237 21.6114C75.8237 21.3653 75.7683 21.1487 75.6575 20.9616C75.5468 20.7745 75.3885 20.6288 75.1848 20.5245C74.981 20.4201 74.7437 20.3689 74.4747 20.3689H73.5786V22.854H74.4747Z" fill="white"/>
<path d="M77.6177 23.0843C77.3487 22.9386 77.1371 22.7358 76.9848 22.4778C76.8305 22.2199 76.7553 21.9324 76.7553 21.6134C76.7553 21.2944 76.8325 21.0069 76.9848 20.7489C77.1391 20.491 77.3487 20.2882 77.6177 20.1424C77.8867 19.9967 78.1894 19.9219 78.5237 19.9219C78.858 19.9219 79.1566 19.9947 79.4257 20.1424C79.6947 20.2882 79.9043 20.491 80.0566 20.747C80.209 21.003 80.2841 21.2924 80.2841 21.6134C80.2841 21.9344 80.209 22.2238 80.0566 22.4798C79.9043 22.7358 79.6947 22.9386 79.4257 23.0843C79.1566 23.2301 78.856 23.3049 78.5237 23.3049C78.1914 23.3049 77.8867 23.232 77.6177 23.0843ZM79.1804 22.7181C79.3742 22.6078 79.5285 22.4562 79.6413 22.2612C79.754 22.0683 79.8094 21.8517 79.8094 21.6114C79.8094 21.3712 79.752 21.1546 79.6413 20.9616C79.5285 20.7686 79.3762 20.615 79.1804 20.5048C78.9865 20.3945 78.767 20.3393 78.5237 20.3393C78.2804 20.3393 78.0588 20.3945 77.861 20.5048C77.6632 20.615 77.5089 20.7667 77.3962 20.9616C77.2835 21.1546 77.2281 21.3712 77.2281 21.6114C77.2281 21.8517 77.2835 22.0683 77.3962 22.2612C77.5089 22.4542 77.6632 22.6078 77.861 22.7181C78.0588 22.8284 78.2804 22.8835 78.5237 22.8835C78.767 22.8835 78.9865 22.8284 79.1804 22.7181Z" fill="white"/>
<path d="M84.6991 22.854V23.2655H82.2879V19.9573H84.6318V20.3689H82.7626V21.385H84.4281V21.7867H82.7626V22.854H84.6991Z" fill="white"/>
<path d="M85.7118 23.1867C85.4804 23.1099 85.2964 23.0095 85.1639 22.8874L85.34 22.5192C85.4666 22.6334 85.6287 22.724 85.8265 22.7949C86.0244 22.8658 86.2281 22.9012 86.4358 22.9012C86.7107 22.9012 86.9164 22.854 87.0529 22.7614C87.1894 22.6689 87.2567 22.5448 87.2567 22.3912C87.2567 22.277 87.2191 22.1864 87.1459 22.1155C87.0727 22.0446 86.9797 21.9895 86.8709 21.9521C86.7622 21.9147 86.6079 21.8713 86.4081 21.8241C86.1589 21.765 85.9571 21.704 85.8028 21.6449C85.6485 21.5858 85.518 21.4933 85.4092 21.3692C85.3004 21.2452 85.245 21.0778 85.245 20.8651C85.245 20.6879 85.2925 20.5304 85.3855 20.3886C85.4784 20.2468 85.6208 20.1326 85.8107 20.0479C86.0006 19.9632 86.236 19.9199 86.5189 19.9199C86.7147 19.9199 86.9085 19.9455 87.0984 19.9947C87.2883 20.044 87.4505 20.1168 87.587 20.2114L87.4307 20.5894C87.2923 20.5008 87.1419 20.4339 86.9857 20.3886C86.8274 20.3433 86.6731 20.3197 86.5208 20.3197C86.2518 20.3197 86.0501 20.3689 85.9156 20.4654C85.7811 20.5638 85.7138 20.6899 85.7138 20.8435C85.7138 20.9577 85.7514 21.0482 85.8285 21.1191C85.9037 21.19 85.9986 21.2452 86.1114 21.2845C86.2241 21.3239 86.3764 21.3653 86.5703 21.4106C86.8195 21.4696 87.0213 21.5307 87.1736 21.5898C87.3259 21.6488 87.4564 21.7414 87.5652 21.8635C87.674 21.9856 87.7294 22.151 87.7294 22.3597C87.7294 22.533 87.6819 22.6905 87.587 22.8343C87.4921 22.978 87.3476 23.0903 87.1558 23.1749C86.9639 23.2596 86.7266 23.301 86.4437 23.301C86.1945 23.301 85.9531 23.2616 85.7197 23.1848L85.7118 23.1867Z" fill="white"/>
<path d="M89.027 20.3689H87.8877V19.9573H90.6351V20.3689H89.4958V23.2655H89.025V20.3689H89.027Z" fill="white"/>
<path d="M93.1037 22.4385H91.3373L90.9714 23.2655H90.4828L91.9881 19.9573H92.4589L93.9681 23.2655H93.4696L93.1037 22.4385ZM92.9376 22.0604L92.2215 20.4398L91.5055 22.0604H92.9395H92.9376Z" fill="white"/>
<path d="M94.4606 19.9573H95.8611C96.2132 19.9573 96.5237 20.0263 96.7967 20.1661C97.0697 20.3039 97.2793 20.4988 97.4297 20.7489C97.58 20.999 97.6551 21.2865 97.6551 21.6114C97.6551 21.9363 97.58 22.2238 97.4297 22.4739C97.2793 22.724 97.0677 22.9189 96.7967 23.0568C96.5237 23.1946 96.2132 23.2655 95.8611 23.2655H94.4606V19.9573ZM95.8334 22.854C96.1024 22.854 96.3398 22.8028 96.5435 22.6984C96.7472 22.594 96.9055 22.4483 97.0162 22.2612C97.127 22.0742 97.1824 21.8576 97.1824 21.6114C97.1824 21.3653 97.127 21.1487 97.0162 20.9616C96.9055 20.7745 96.7472 20.6288 96.5435 20.5245C96.3398 20.4201 96.1024 20.3689 95.8334 20.3689H94.9354V22.854H95.8334Z" fill="white"/>
<path d="M98.9745 23.0843C98.7055 22.9386 98.4938 22.7358 98.3415 22.4778C98.1872 22.2199 98.1121 21.9324 98.1121 21.6134C98.1121 21.2944 98.1892 21.0069 98.3415 20.7489C98.4958 20.491 98.7055 20.2882 98.9745 20.1424C99.2435 19.9967 99.5461 19.9219 99.8804 19.9219C100.215 19.9219 100.513 19.9947 100.782 20.1424C101.051 20.2882 101.261 20.491 101.413 20.747C101.566 21.003 101.641 21.2924 101.641 21.6134C101.641 21.9344 101.566 22.2238 101.413 22.4798C101.261 22.7358 101.051 22.9386 100.782 23.0843C100.513 23.2301 100.213 23.3049 99.8804 23.3049C99.5481 23.3049 99.2435 23.232 98.9745 23.0843ZM100.539 22.7181C100.733 22.6078 100.887 22.4562 101 22.2612C101.113 22.0683 101.168 21.8517 101.168 21.6114C101.168 21.3712 101.113 21.1546 101 20.9616C100.887 20.7686 100.735 20.615 100.539 20.5048C100.345 20.3945 100.126 20.3393 99.8824 20.3393C99.6391 20.3393 99.4176 20.3945 99.2198 20.5048C99.022 20.615 98.8677 20.7667 98.7549 20.9616C98.6422 21.1546 98.5868 21.3712 98.5868 21.6114C98.5868 21.8517 98.6422 22.0683 98.7549 22.2612C98.8677 22.4542 99.022 22.6078 99.2198 22.7181C99.4176 22.8284 99.6391 22.8835 99.8824 22.8835C100.126 22.8835 100.345 22.8284 100.539 22.7181Z" fill="white"/>
<path d="M32.4258 4.0722V7.48474C32.1311 7.44733 31.8739 7.44733 31.6148 7.44733C27.819 7.44733 25.4612 9.75911 25.4612 14.0144V23.7007H21.9225V4.25533H25.3128V7.52018C26.5649 5.24582 28.9979 4.0722 32.4258 4.0722Z" fill="white"/>
<path d="M15.5196 4.33804V6.00591C13.8877 4.68461 11.8286 3.89498 9.59145 3.89498C4.29429 3.89498 0 8.31178 0 13.7624C0 19.213 4.29429 23.6298 9.59145 23.6298C11.8286 23.6298 13.8877 22.8421 15.5196 21.5189V23.6298H19.0207V4.33804H15.5196ZM9.59145 20.4851C5.98353 20.4851 3.05803 17.4762 3.05803 13.7624C3.05803 10.0486 5.98353 7.03971 9.59145 7.03971C12.2183 7.03971 14.4811 8.63275 15.5196 10.9327C15.9073 11.7932 16.1249 12.7522 16.1249 13.7624C16.1249 14.7726 15.9073 15.7315 15.5196 16.5921C14.4811 18.8901 12.2183 20.4851 9.59145 20.4851Z" fill="white"/>
<path d="M33.9212 4.25533V0H37.4599V4.25533H43.8054V7.15392H37.4599V17.683C37.4599 19.7742 38.5656 20.9478 40.5179 20.9478C41.5504 20.9478 42.5454 20.617 43.2812 20.0302L44.3869 22.5606C43.3188 23.4782 41.6968 23.9173 40.1124 23.9173C36.1682 23.9173 33.9212 21.7532 33.9212 17.8267V7.14998" fill="white"/>
<path d="M65.0612 13.912C65.0612 11.9547 64.63 10.2199 63.7676 8.70167C62.9052 7.18543 61.7085 6.00591 60.1775 5.16114C58.6465 4.31638 56.9019 3.89498 54.9476 3.89498C52.9933 3.89498 51.2348 4.31638 49.6781 5.16114C48.1214 6.00591 46.899 7.18543 46.0109 8.70167C45.1227 10.2179 44.6797 11.9173 44.6797 13.8018C44.6797 15.6862 45.1366 17.4211 46.0504 18.9373C46.9643 20.4536 48.2559 21.6331 49.9293 22.4778C51.6027 23.3226 53.5195 23.744 55.6814 23.744C57.3806 23.744 58.9175 23.4742 60.2942 22.9367C61.6709 22.3991 62.8221 21.6154 63.7498 20.5894L61.7045 18.3151C60.2111 19.8805 58.243 20.6623 55.7981 20.6623C53.7904 20.6623 52.1111 20.1424 50.7601 19.1027C49.4091 18.063 48.6179 16.6885 48.3865 14.9754H64.9841C65.0355 14.5343 65.0612 14.1818 65.0612 13.912ZM50.4891 8.40827C51.6858 7.38037 53.1713 6.86643 54.9476 6.86643C56.7239 6.86643 58.2094 7.38628 59.4061 8.42599C60.49 9.36725 61.1665 10.5566 61.4375 11.9882H48.4577C48.7287 10.533 49.4052 9.33771 50.4891 8.4063V8.40827Z" fill="white"/>
</svg>
