<svg width="225" height="48" viewBox="0 0 225 48" fill="none" xmlns="http://www.w3.org/2000/svg">
<path d="M8.66897 10.153L1.40541 17.4297H17.4089L7.34521 22.78C6.46095 23.2432 5.76091 23.6827 5.14246 24.1669C1.8607 26.7355 -0.0130898 30.5462 6.88415e-05 34.6175C0.0263861 41.9785 6.38989 47.9683 14.1877 47.9683H18.3853L26.3699 40.7994H14.1877C10.4743 40.7994 7.44521 38.0151 7.43205 34.5938C7.42416 32.7016 8.29789 30.9305 9.82429 29.7357C10.0796 29.5357 10.4164 29.3304 10.8822 29.0856L26.3726 21.0352V47.5393H34.0204V10.1556H8.6716L8.66897 10.153Z" fill="#010101"/>
<path d="M41.4653 10.153V47.5366H49.6079V17.456V10.153H41.4653Z" fill="#010101"/>
<path d="M76.8227 17.4508H86.9996V10.153H76.8227L68.6881 17.4429H68.6776V47.5366H75.7727H76.8227H79.9124L87.2128 40.231H76.8227V17.4508Z" fill="#010101"/>
<path d="M76.8227 0H68.6776V10.1506H76.8227V0Z" fill="#010101"/>
<path d="M49.6082 17.4482H62.7616V10.153H57.6955L49.6082 17.4482Z" fill="#010101"/>
<path d="M126.931 25.3146C126.455 22.3433 125.31 19.6037 123.531 17.1799C122.668 15.9456 121.61 14.8035 120.383 13.7797C117.044 11.0296 113.022 9.57422 108.751 9.57422C104.48 9.57422 100.411 11.069 97.1161 13.7823C93.6317 16.6957 91.3079 20.7906 90.571 25.3119C90.5578 25.3856 90.55 25.4567 90.5394 25.5304L98.4109 32.636H126.865L126.931 32.2702C127.107 31.278 127.197 30.2254 127.197 29.1437V28.4805C127.197 27.3989 127.11 26.3646 126.931 25.3172V25.3146ZM98.4109 24.9409C99.861 20.4353 104.069 17.3115 108.751 17.3115C111.67 17.3115 114.412 18.4721 116.475 20.5801C117.091 21.2091 117.62 21.8986 118.009 22.5749C118.507 23.3934 118.865 24.1724 119.102 24.9409H98.4109Z" fill="#010101"/>
<path d="M118.043 34.9387L118.004 35.0072C117.633 35.6519 117.13 36.3178 116.478 37.0336C114.37 39.1442 111.625 40.3075 108.751 40.3075C104.064 40.3075 99.8556 37.1678 98.4108 32.636H90.642C91.4367 37.002 93.7237 40.9549 97.1213 43.7945C100.414 46.5052 104.545 48 108.753 48C112.962 48 117.046 46.5446 120.388 43.7945C121.612 42.7734 122.673 41.6312 123.533 40.3969L123.749 40.089L123.715 40.0548L118.049 34.9414L118.043 34.9387Z" fill="#010101"/>
<path d="M142.908 2.94741C142.908 2.43685 142.582 2.1342 142.116 2.1342C141.721 2.1342 141.363 2.49212 141.363 2.90267C141.363 3.31322 141.629 3.52639 142.176 3.70271C143.395 4.08957 143.842 4.5475 143.842 5.52123C143.842 6.49497 143.111 7.22659 142.116 7.22659C141.121 7.22659 140.395 6.51076 140.381 5.45281H141.203C141.21 6.06074 141.568 6.47129 142.116 6.47129C142.663 6.47129 143.021 6.07653 143.021 5.52123C143.021 5.11068 142.839 4.85277 142.237 4.64487C140.845 4.17379 140.539 3.71587 140.539 2.91846C140.539 2.05788 141.247 1.38153 142.116 1.38153C143.045 1.38153 143.713 1.9684 143.729 2.95004H142.908V2.94741Z" fill="#010101"/>
<path d="M145.25 7.11906V2.24248H144.168V1.48981H147.15V2.24248H146.069V7.11906H145.247H145.25Z" fill="#010101"/>
<path d="M151.337 7.11877L150.714 5.46078H148.69L148.066 7.11877H147.198L149.335 1.48688H150.072L152.209 7.11877H151.332H151.337ZM149.719 2.55273H149.703L148.979 4.70548H150.432L149.716 2.55273H149.719Z" fill="#010101"/>
<path d="M153.324 7.11906V2.24248H152.243V1.48981H155.224V2.24248H154.143V7.11906H153.322H153.324Z" fill="#010101"/>
<path d="M155.859 7.11877V1.48688H158.896V2.23955H156.68V3.89754H158.896V4.65021H156.68V6.36346H158.896V7.11613H155.859V7.11877Z" fill="#010101"/>
<path d="M162.659 7.11906V2.24248H161.577V1.48981H164.559V2.24248H163.478V7.11906H162.656H162.659Z" fill="#010101"/>
<path d="M165.193 7.11877V1.48688H168.23V2.23955H166.015V3.89754H168.23V4.65021H166.015V6.36346H168.23V7.11613H165.193V7.11877Z" fill="#010101"/>
<path d="M174.47 5.72657C173.899 6.7082 172.994 7.22665 171.867 7.22665C170.307 7.22665 169.023 5.82657 169.023 4.32649C169.023 2.62903 170.362 1.38159 171.875 1.38159C172.941 1.38159 173.939 1.86846 174.507 2.92641H173.517C173.091 2.43165 172.596 2.13426 171.936 2.13426C170.757 2.13426 169.844 3.13169 169.844 4.25017C169.844 5.42918 170.733 6.47135 171.891 6.47135C172.478 6.47135 173.002 6.24239 173.46 5.72657H174.473H174.47Z" fill="#010101"/>
<path d="M178.471 7.11877V4.66863H176.149V7.11877H175.328V1.48688H176.149V3.91333H178.471V1.48688H179.292V7.11877H178.471Z" fill="#010101"/>
<path d="M184.126 7.11877L181.342 2.7659H181.326V7.11877H180.505V1.48688H181.402L184.142 5.77132H184.158V1.48688H184.979V7.11877H184.126Z" fill="#010101"/>
<path d="M188.797 7.22402C187.237 7.22402 185.913 5.88447 185.913 4.36334C185.913 2.63692 187.237 1.38159 188.821 1.38159C190.495 1.38159 191.774 2.69745 191.774 4.26596C191.774 5.97132 190.458 7.22665 188.797 7.22665V7.22402ZM190.95 4.3186C190.95 3.15537 190.068 2.13426 188.879 2.13426C187.358 2.13426 186.734 3.44223 186.734 4.27912C186.734 5.41339 187.555 6.47135 188.842 6.47135C190.129 6.47135 190.95 5.34497 190.95 4.3186Z" fill="#010101"/>
<path d="M192.737 7.11877V1.48688H193.558V6.36609H195.514V7.11877H192.737Z" fill="#010101"/>
<path d="M198.764 7.22402C197.203 7.22402 195.879 5.88447 195.879 4.36334C195.879 2.63692 197.203 1.38159 198.787 1.38159C200.461 1.38159 201.74 2.69745 201.74 4.26596C201.74 5.97132 200.424 7.22665 198.764 7.22665V7.22402ZM200.916 4.3186C200.916 3.15537 200.035 2.13426 198.845 2.13426C197.324 2.13426 196.7 3.44223 196.7 4.27912C196.7 5.41339 197.522 6.47135 198.808 6.47135C200.095 6.47135 200.916 5.34497 200.916 4.3186Z" fill="#010101"/>
<path d="M204.622 5.07138V4.31871H208.183C208.13 6.18987 206.714 7.22676 205.214 7.22676C203.714 7.22676 202.39 5.90301 202.39 4.38187C202.39 2.55546 203.79 1.38434 205.214 1.38434C206.296 1.38434 207.222 1.89489 207.793 2.90547H206.835C206.356 2.35808 205.877 2.13701 205.254 2.13701C204.159 2.13701 203.214 3.17128 203.214 4.28187C203.214 5.46877 204.151 6.47409 205.285 6.47409C206.175 6.47409 206.89 5.97933 207.248 5.07401H204.622V5.07138Z" fill="#010101"/>
<path d="M209.075 7.11877V1.48688H209.896V7.11877H209.075Z" fill="#010101"/>
<path d="M216.272 5.72657C215.701 6.7082 214.796 7.22665 213.67 7.22665C212.109 7.22665 210.825 5.82657 210.825 4.32649C210.825 2.62903 212.164 1.38159 213.678 1.38159C214.743 1.38159 215.741 1.86846 216.309 2.92641H215.32C214.893 2.43165 214.399 2.13426 213.738 2.13426C212.559 2.13426 211.646 3.13169 211.646 4.25017C211.646 5.42918 212.535 6.47135 213.693 6.47135C214.28 6.47135 214.804 6.24239 215.262 5.72657H216.275H216.272Z" fill="#010101"/>
<path d="M220.494 7.11877L219.87 5.46078H217.846L217.223 7.11877H216.354L218.491 1.48688H219.228L221.368 7.11877H220.491H220.494ZM218.875 2.55273H218.86L218.136 4.70548H219.589L218.873 2.55273H218.875Z" fill="#010101"/>
<path d="M222.139 7.11877V1.48688H222.96V6.36609H224.915V7.11877H222.139Z" fill="#010101"/>
<path d="M143.432 17.3245L141.576 14.7138H141.56V17.3245H140.739V11.6926H142.542C143.897 11.6926 144.497 12.4085 144.497 13.5638C144.497 14.6375 143.676 15.2007 142.884 15.2218L144.461 17.3219H143.434L143.432 17.3245ZM142.163 14.6007C143.121 14.6007 143.676 14.227 143.676 13.498C143.676 12.8506 143.158 12.4479 142.429 12.4479H141.56V14.6007H142.163Z" fill="#010101"/>
<path d="M145.334 17.3245V11.6926H148.371V12.4453H146.156V14.1033H148.371V14.856H146.156V16.5692H148.371V17.3219H145.334V17.3245Z" fill="#010101"/>
<path d="M149.366 17.3245V11.6926H152.211V12.4453H150.187V14.1349H152.211V14.8875H150.187V17.3219H149.366V17.3245Z" fill="#010101"/>
<path d="M155.79 17.4325C154.23 17.4325 152.906 16.093 152.906 14.5718C152.906 12.8454 154.23 11.5901 155.814 11.5901C157.488 11.5901 158.767 12.906 158.767 14.4745C158.767 16.1798 157.451 17.4351 155.79 17.4351V17.4325ZM157.943 14.5245C157.943 13.3612 157.061 12.3401 155.872 12.3401C154.351 12.3401 153.727 13.6481 153.727 14.485C153.727 15.6193 154.548 16.6772 155.835 16.6772C157.122 16.6772 157.943 15.5508 157.943 14.5245Z" fill="#010101"/>
<path d="M162.317 17.3245L160.462 14.7138H160.446V17.3245H159.625V11.6926H161.428C162.783 11.6926 163.383 12.4085 163.383 13.5638C163.383 14.6375 162.562 15.2007 161.77 15.2218L163.346 17.3219H162.32L162.317 17.3245ZM161.046 14.6007C162.004 14.6007 162.559 14.227 162.559 13.498C162.559 12.8506 162.041 12.4479 161.312 12.4479H160.443V14.6007H161.046Z" fill="#010101"/>
<path d="M169.446 17.3245V12.569H169.423L167.528 17.3245H167.033L165.13 12.569H165.114V17.3245H164.293V11.6926H165.588L167.278 16.006L168.975 11.6926H170.27V17.3245H169.449H169.446Z" fill="#010101"/>
<path d="M177.315 17.3245L176.691 15.6665H174.668L174.044 17.3245H173.175L175.312 11.6926H176.049L178.186 17.3245H177.31H177.315ZM175.694 12.7585H175.678L174.954 14.9112H176.407L175.691 12.7585H175.694Z" fill="#010101"/>
<path d="M180.494 15.2799V14.5272H184.055C184.003 16.3984 182.587 17.4353 181.087 17.4353C179.587 17.4353 178.263 16.1115 178.263 14.5904C178.263 12.764 179.663 11.5928 181.087 11.5928C182.168 11.5928 183.095 12.1034 183.666 13.114H182.708C182.229 12.5666 181.75 12.3455 181.126 12.3455C180.031 12.3455 179.086 13.3798 179.086 14.4904C179.086 15.6773 180.023 16.6826 181.158 16.6826C182.047 16.6826 182.763 16.1878 183.121 15.2825H180.494V15.2799Z" fill="#010101"/>
<path d="M184.871 17.3245V11.6926H187.908V12.4453H185.692V14.1033H187.908V14.856H185.692V16.5692H187.908V17.3219H184.871V17.3245Z" fill="#010101"/>
<path d="M192.6 17.3245L189.816 12.9716H189.8V17.3245H188.979V11.6926H189.876L192.616 15.9771H192.632V11.6926H193.453V17.3245H192.6Z" fill="#010101"/>
<path d="M199.838 15.9327C199.267 16.9143 198.361 17.4328 197.235 17.4328C195.674 17.4328 194.39 16.0327 194.39 14.5326C194.39 12.8351 195.729 11.5877 197.243 11.5877C198.309 11.5877 199.306 12.0746 199.874 13.1325H198.885C198.459 12.6378 197.964 12.3404 197.303 12.3404C196.124 12.3404 195.211 13.3378 195.211 14.4563C195.211 15.6353 196.101 16.6775 197.259 16.6775C197.845 16.6775 198.369 16.4485 198.827 15.9327H199.84H199.838Z" fill="#010101"/>
<path d="M201.975 17.3245V15.2928L200.224 11.6926H201.146L202.385 14.3322L203.617 11.6926H204.53L202.796 15.2928V17.3245H201.975Z" fill="#010101"/>
</svg>
