<svg width="235" height="48" viewBox="0 0 235 48" fill="none" xmlns="http://www.w3.org/2000/svg">
<path fill-rule="evenodd" clip-rule="evenodd" d="M24.8899 47.9898H24.8695V48H24.5432C10.9919 48 0 37.2562 0 24C0 10.754 10.9919 0 24.5432 0H24.8899V9.40596H24.5738C16.3247 9.41617 9.65616 15.9319 9.65616 23.9908C9.65616 32.0589 16.3349 38.5736 24.584 38.5736H24.8899V47.9898Z" fill="#3C5BDC"/>
<path fill-rule="evenodd" clip-rule="evenodd" d="M28.5096 27.4213C28.1833 27.5653 27.959 27.6562 27.49 27.6562C24.9918 27.6562 24.7981 25.2347 24.7981 25.2347V21.1292L24.8593 20.6594L24.9204 20.6492H30.0697V24.6934C30.0697 24.6934 29.9168 26.8187 28.5096 27.4213Z" fill="#3C5BDC"/>
<path fill-rule="evenodd" clip-rule="evenodd" d="M41.6938 27.4213C41.3675 27.5653 41.1432 27.6562 40.664 27.6562C38.176 27.6562 37.9823 25.2347 37.9823 25.2347V21.1292L38.0434 20.6594L38.1046 20.6492H43.2539V24.6934C43.2539 24.6934 43.1009 26.8187 41.6938 27.4213Z" fill="#3C5BDC"/>
<path fill-rule="evenodd" clip-rule="evenodd" d="M34.75 35.6732C34.5052 35.7447 34.3727 35.7845 34.0668 35.7845C31.5788 35.7845 31.3851 33.3845 31.3851 33.3845V29.2698L31.4361 29.7181L31.6604 29.6977H36.6567V33.7501C36.6567 33.7522 36.4732 35.2238 34.75 35.6732Z" fill="#3C5BDC"/>
<path fill-rule="evenodd" clip-rule="evenodd" d="M35.0864 27.4213C34.7601 27.5653 34.5256 27.6562 34.0668 27.6562C31.5788 27.6562 31.3851 25.2347 31.3851 25.2347V21.1292L31.4361 20.6594L31.6604 20.6492H36.6567V24.6934C36.6567 24.6934 36.4936 26.8289 35.0864 27.4213Z" fill="#3C5BDC"/>
<path fill-rule="evenodd" clip-rule="evenodd" d="M34.75 19.4043C34.5052 19.4655 34.3727 19.5064 34.0668 19.5064C31.5788 19.5064 31.3851 17.1064 31.3851 17.1064V13.0009L31.4361 12.9191L31.6604 12.8885H36.6567V16.9532C36.6567 16.9532 36.4732 18.9437 34.75 19.4043Z" fill="#3C5BDC"/>
<path d="M70.1415 31.4339L69.025 28.3251H63.9532L62.8377 31.4339H59.9164L65.3746 16.9654H67.6056L73.0638 31.4339H70.1415ZM66.3066 20.3602H66.6716L64.7638 25.9077H68.2123L66.3066 20.3602Z" fill="#3C5BDC"/>
<path d="M78.9289 31.5554C75.9066 31.5554 73.5329 29.5036 73.5329 26.4357V16.9664H76.2707V26.2131C76.2707 27.9605 77.4066 28.9154 78.9279 28.9154C80.4502 28.9154 81.6055 27.9595 81.6055 26.2131V16.9664H84.3453V26.4357C84.3464 29.5036 81.9522 31.5554 78.9289 31.5554Z" fill="#3C5BDC"/>
<path d="M91.6319 19.3848V31.4338H88.8921V19.3848H84.9358V16.9664H95.5872V19.3848H91.6319Z" fill="#3C5BDC"/>
<path d="M96.4423 31.4338V16.9664H106.221V19.487H99.1811V22.9419H105.187V25.3399H99.1811V28.9164H106.221V31.4349L96.4423 31.4338Z" fill="#3C5BDC"/>
<path d="M116.47 31.4338L109.938 21.5183H110.322V31.4338H107.583V16.9664H110.059L116.591 26.883H116.227V16.9664H118.966V31.4349L116.47 31.4338Z" fill="#3C5BDC"/>
<path d="M126.515 19.3848V31.4338H123.777V19.3848H119.819V16.9664H130.472V19.3848H126.515Z" fill="#3C5BDC"/>
<path d="M131.326 31.4338V16.9664H134.065V31.4349L131.326 31.4338Z" fill="#3C5BDC"/>
<path d="M141.35 31.5554C138.956 31.5554 137.313 30.194 136.582 28.894C136.114 28.0412 135.933 27.6347 135.933 24.1992C135.933 20.7442 136.114 20.3397 136.582 19.486C137.313 18.2053 138.956 16.8429 141.35 16.8429C144.23 16.8429 146.219 18.7741 146.747 21.4969H143.905C143.541 20.3397 142.607 19.486 141.35 19.486C140.416 19.486 139.727 19.8914 139.34 20.4C138.793 21.07 138.671 21.457 138.671 24.2002C138.671 26.9229 138.793 27.31 139.34 28.0003C139.727 28.4895 140.416 28.9154 141.35 28.9154C142.466 28.9154 143.298 28.3047 143.927 27.0046H146.747C146.098 30.0735 143.946 31.5554 141.35 31.5554Z" fill="#3C5BDC"/>
<path d="M156.143 31.4339L155.028 28.3251H149.955L148.837 31.4339H145.916L151.375 16.9654H153.606L159.066 31.4339H156.143ZM152.307 20.3602H152.673L150.766 25.9077H154.215L152.307 20.3602Z" fill="#3C5BDC"/>
<path d="M165.641 31.5972L164.85 32.6328L164.627 32.2059C164.769 32.1661 164.972 32.1242 165.214 32.1242C166.513 32.1242 167.283 32.9382 167.283 33.8931C167.283 35.3157 165.985 36.0255 164.503 36.0255C163.834 36.0255 163.063 35.7824 162.109 35.4566L162.698 34.1167C163.327 34.3404 163.793 34.4813 164.24 34.4813C164.747 34.4813 165.152 34.3394 165.152 33.9125C165.152 33.5673 164.808 33.4652 164.423 33.4652C164.2 33.4652 164.017 33.505 163.611 33.7082L162.84 33.0577L163.915 31.6156C161.968 31.3501 160.608 30.1123 159.958 28.994C159.492 28.1412 159.309 27.7348 159.309 24.2594C159.309 20.7635 159.492 20.3581 159.958 19.5043C160.689 18.2042 162.332 16.8418 164.726 16.8418C167.608 16.8418 169.595 18.7925 170.123 21.5377H167.283C166.919 20.3591 165.985 19.5053 164.726 19.5053C163.794 19.5053 163.103 19.9322 162.718 20.4194C162.171 21.1118 162.049 21.4764 162.049 24.2614C162.049 27.024 162.171 27.3906 162.718 28.081C163.103 28.5692 163.794 29.0165 164.726 29.0165C165.844 29.0165 166.674 28.4058 167.303 27.1057H170.123C169.537 29.8488 167.832 31.2929 165.641 31.5972Z" fill="#3C5BDC"/>
<path d="M179.52 31.4338L178.405 28.3251H173.332L172.216 31.4338H169.295L174.752 16.9654H176.984L182.442 31.4338H179.52ZM177.247 15.9503C176.213 15.9503 175.139 15.3406 174.326 15.3406C174.123 15.3406 173.758 15.4427 173.758 16.0514H171.952C172.197 14.5276 173.191 13.6739 174.549 13.6739C175.565 13.6739 176.478 14.304 177.31 14.304C177.592 14.304 177.897 14.2018 178.041 13.5727H179.805C179.5 14.9341 178.749 15.9503 177.247 15.9503ZM175.686 20.3601H176.05L174.145 25.9077H177.592L175.686 20.3601Z" fill="#3C5BDC"/>
<path d="M192.872 28.894C192.141 30.194 190.499 31.5554 188.105 31.5554C185.71 31.5554 184.068 30.194 183.337 28.894C182.871 28.0412 182.687 27.6347 182.687 24.1992C182.687 20.7442 182.871 20.3397 183.337 19.486C184.068 18.2053 185.71 16.8429 188.105 16.8429C190.499 16.8429 192.141 18.2053 192.872 19.486C193.338 20.3397 193.541 20.7442 193.541 24.1992C193.542 27.6347 193.338 28.0422 192.872 28.894ZM190.114 20.4C189.728 19.8924 189.039 19.486 188.105 19.486C187.171 19.486 186.481 19.8914 186.095 20.4C185.547 21.07 185.426 21.457 185.426 24.2002C185.426 26.9229 185.547 27.31 186.095 28.0003C186.481 28.4895 187.171 28.9154 188.105 28.9154C189.039 28.9154 189.728 28.4885 190.114 28.0003C190.662 27.31 190.804 26.9229 190.804 24.2002C190.804 21.457 190.662 21.07 190.114 20.4Z" fill="#3C5BDC"/>
<path d="M195.288 31.4339V29.3617H197.905V31.4339H195.288Z" fill="#3C5BDC"/>
<path d="M205.069 31.5554C202.675 31.5554 201.032 30.194 200.301 28.894C199.835 28.0412 199.651 27.6347 199.651 24.1992C199.651 20.7442 199.835 20.3397 200.301 19.486C201.032 18.2053 202.675 16.8429 205.069 16.8429C207.95 16.8429 209.938 18.7741 210.466 21.4969H207.626C207.262 20.3397 206.328 19.486 205.069 19.486C204.137 19.486 203.445 19.8914 203.061 20.4C202.514 21.07 202.392 21.457 202.392 24.2002C202.392 26.9229 202.514 27.31 203.061 28.0003C203.445 28.4895 204.137 28.9154 205.069 28.9154C206.592 28.9154 207.767 27.7971 207.767 26.2131V25.7658H204.825V23.2249H210.507V26.3346C210.508 29.2402 208.115 31.5554 205.069 31.5554Z" fill="#3C5BDC"/>
<path d="M222.075 28.894C221.344 30.194 219.701 31.5554 217.305 31.5554C214.911 31.5554 213.268 30.194 212.537 28.894C212.071 28.0412 211.887 27.6347 211.887 24.1992C211.887 20.7442 212.071 20.3397 212.537 19.486C213.268 18.2053 214.911 16.8429 217.305 16.8429C219.701 16.8429 221.344 18.2053 222.075 19.486C222.541 20.3397 222.744 20.7442 222.744 24.1992C222.744 27.6347 222.541 28.0422 222.075 28.894ZM219.314 20.4C218.928 19.8924 218.239 19.486 217.305 19.486C216.373 19.486 215.681 19.8914 215.297 20.4C214.749 21.07 214.628 21.457 214.628 24.2002C214.628 26.9229 214.749 27.31 215.297 28.0003C215.681 28.4895 216.373 28.9154 217.305 28.9154C218.239 28.9154 218.928 28.4885 219.314 28.0003C219.862 27.31 220.004 26.9229 220.004 24.2002C220.004 21.457 219.862 21.07 219.314 20.4Z" fill="#3C5BDC"/>
<path d="M230.049 31.4339H227.94L222.989 16.9654H225.891L229.178 27.5724H228.812L232.098 16.9654H235L230.049 31.4339Z" fill="#3C5BDC"/>
</svg>
