<svg width="314" height="64" viewBox="0 0 314 64" fill="none" xmlns="http://www.w3.org/2000/svg">
<path fill-rule="evenodd" clip-rule="evenodd" d="M33.2571 63.9864H33.2298V64H32.7938C14.6871 64 0 49.6749 0 32C0 14.3387 14.6871 0 32.7938 0H33.2571V12.5413H32.8347C21.8126 12.5549 12.9023 21.2426 12.9023 31.9877C12.9023 42.7452 21.8262 51.4315 32.8483 51.4315H33.2571V63.9864Z" fill="#3C5BDC"/>
<path fill-rule="evenodd" clip-rule="evenodd" d="M38.0937 36.5617C37.6577 36.7537 37.358 36.8749 36.7313 36.8749C33.3933 36.8749 33.1345 33.6463 33.1345 33.6463V28.1723L33.2162 27.5459L33.298 27.5323H40.1783V32.9246C40.1783 32.9246 39.9739 35.7583 38.0937 36.5617Z" fill="#3C5BDC"/>
<path fill-rule="evenodd" clip-rule="evenodd" d="M55.71 36.5617C55.2741 36.7537 54.9743 36.8749 54.334 36.8749C51.0096 36.8749 50.7508 33.6463 50.7508 33.6463V28.1723L50.8325 27.5459L50.9143 27.5323H57.7946V32.9246C57.7946 32.9246 57.5902 35.7583 55.71 36.5617Z" fill="#3C5BDC"/>
<path fill-rule="evenodd" clip-rule="evenodd" d="M46.4318 47.5643C46.1049 47.6596 45.9277 47.7127 45.519 47.7127C42.1947 47.7127 41.9358 44.5127 41.9358 44.5127V39.0264L42.0039 39.6242L42.3037 39.5969H48.9796V45.0002C48.9796 45.0029 48.7344 46.9651 46.4318 47.5643Z" fill="#3C5BDC"/>
<path fill-rule="evenodd" clip-rule="evenodd" d="M46.8814 36.5617C46.4455 36.7537 46.1321 36.8749 45.519 36.8749C42.1947 36.8749 41.9358 33.6463 41.9358 33.6463V28.1723L42.0039 27.5459L42.3037 27.5323H48.9796V32.9246C48.9796 32.9246 48.7616 35.7719 46.8814 36.5617Z" fill="#3C5BDC"/>
<path fill-rule="evenodd" clip-rule="evenodd" d="M46.4318 25.8723C46.1049 25.954 45.9277 26.0085 45.519 26.0085C42.1947 26.0085 41.9358 22.8085 41.9358 22.8085V17.3345L42.0039 17.2255L42.3037 17.1847H48.9796V22.6043C48.9796 22.6043 48.7344 25.2582 46.4318 25.8723Z" fill="#3C5BDC"/>
<path d="M93.721 41.9118L92.2291 37.7668H85.4523L83.9618 41.9118H80.0585L87.3516 22.6206H90.3326L97.6257 41.9118H93.721ZM88.5968 27.1469H89.0846L86.5355 34.5437H91.1432L88.5968 27.1469Z" fill="#3C5BDC"/>
<path d="M105.462 42.0738C101.424 42.0738 98.2524 39.3382 98.2524 35.2476V22.6219H101.911V34.9508C101.911 37.2806 103.428 38.5538 105.461 38.5538C107.495 38.5538 109.039 37.2793 109.039 34.9508V22.6219H112.7V35.2476C112.701 39.3382 109.502 42.0738 105.462 42.0738Z" fill="#3C5BDC"/>
<path d="M122.436 25.8464V41.9118H118.775V25.8464H113.489V22.6219H127.721V25.8464H122.436Z" fill="#3C5BDC"/>
<path d="M128.863 41.9118V22.6219H141.929V25.9826H132.523V30.5892H140.548V33.7865H132.523V38.5552H141.929V41.9132L128.863 41.9118Z" fill="#3C5BDC"/>
<path d="M155.623 41.9118L146.896 28.691H147.409V41.9118H143.75V22.6219H147.058L155.785 35.8441H155.299V22.6219H158.959V41.9132L155.623 41.9118Z" fill="#3C5BDC"/>
<path d="M169.046 25.8464V41.9118H165.387V25.8464H160.099V22.6219H174.332V25.8464H169.046Z" fill="#3C5BDC"/>
<path d="M175.474 41.9118V22.6219H179.134V41.9132L175.474 41.9118Z" fill="#3C5BDC"/>
<path d="M188.868 42.0739C185.669 42.0739 183.474 40.2587 182.497 38.5253C181.872 37.3883 181.629 36.8463 181.629 32.2655C181.629 27.6589 181.872 27.1197 182.497 25.9813C183.474 24.2737 185.669 22.4572 188.868 22.4572C192.715 22.4572 195.373 25.0322 196.079 28.6625H192.282C191.796 27.1197 190.548 25.9813 188.868 25.9813C187.62 25.9813 186.699 26.5219 186.182 27.2C185.451 28.0933 185.289 28.6094 185.289 32.2669C185.289 35.8972 185.451 36.4133 186.182 37.3338C186.699 37.986 187.62 38.5539 188.868 38.5539C190.358 38.5539 191.47 37.7396 192.311 36.0061H196.079C195.211 40.098 192.337 42.0739 188.868 42.0739Z" fill="#3C5BDC"/>
<path d="M208.634 41.9118L207.144 37.7668H200.365L198.872 41.9118H194.969L202.263 22.6206H205.244L212.539 41.9118H208.634ZM203.509 27.1469H203.998L201.449 34.5437H206.058L203.509 27.1469Z" fill="#3C5BDC"/>
<path d="M221.324 42.1297L220.268 43.5104L219.97 42.9412C220.159 42.8881 220.43 42.8323 220.755 42.8323C222.489 42.8323 223.519 43.9176 223.519 45.1908C223.519 47.0876 221.785 48.034 219.804 48.034C218.91 48.034 217.88 47.7099 216.605 47.2755L217.392 45.489C218.233 45.7872 218.855 45.9751 219.452 45.9751C220.131 45.9751 220.672 45.7858 220.672 45.2166C220.672 44.7564 220.211 44.6202 219.697 44.6202C219.399 44.6202 219.155 44.6733 218.612 44.9443L217.582 44.0769L219.019 42.1542C216.417 41.8001 214.599 40.1497 213.731 38.6587C213.109 37.5217 212.863 36.9797 212.863 32.3458C212.863 27.6847 213.109 27.1441 213.731 26.0057C214.708 24.2723 216.903 22.4558 220.102 22.4558C223.952 22.4558 226.608 25.0566 227.313 28.7169H223.519C223.033 27.1455 221.785 26.0071 220.102 26.0071C218.857 26.0071 217.933 26.5763 217.419 27.2258C216.688 28.1491 216.526 28.6352 216.526 32.3486C216.526 36.032 216.688 36.5208 217.419 37.4413C217.933 38.0922 218.857 38.6886 220.102 38.6886C221.595 38.6886 222.704 37.8743 223.545 36.1409H227.313C226.53 39.7984 224.252 41.7239 221.324 42.1297Z" fill="#3C5BDC"/>
<path d="M239.87 41.9118L238.379 37.7668H231.601L230.11 41.9118H226.207L233.499 22.6206H236.481L243.773 41.9118H239.87ZM236.833 21.267C235.451 21.267 234.015 20.4541 232.929 20.4541C232.658 20.4541 232.17 20.5903 232.17 21.4018H229.758C230.085 19.3702 231.413 18.2318 233.228 18.2318C234.585 18.2318 235.804 19.072 236.916 19.072C237.293 19.072 237.701 18.9358 237.893 18.097H240.25C239.842 19.9121 238.84 21.267 236.833 21.267ZM234.747 27.1469H235.233L232.687 34.5436H237.293L234.747 27.1469Z" fill="#3C5BDC"/>
<path d="M257.71 38.5253C256.734 40.2587 254.539 42.0739 251.34 42.0739C248.141 42.0739 245.946 40.2587 244.969 38.5253C244.346 37.3883 244.101 36.8463 244.101 32.2655C244.101 27.6589 244.346 27.1197 244.969 25.9813C245.946 24.2737 248.141 22.4572 251.34 22.4572C254.539 22.4572 256.734 24.2737 257.71 25.9813C258.333 27.1197 258.604 27.6589 258.604 32.2655C258.606 36.8463 258.333 37.3896 257.71 38.5253ZM254.025 27.2C253.509 26.5232 252.588 25.9813 251.34 25.9813C250.092 25.9813 249.171 26.5219 248.654 27.2C247.923 28.0933 247.761 28.6094 247.761 32.2669C247.761 35.8972 247.923 36.4133 248.654 37.3338C249.171 37.986 250.092 38.5539 251.34 38.5539C252.588 38.5539 253.509 37.9847 254.025 37.3338C254.757 36.4133 254.946 35.8972 254.946 32.2669C254.946 28.6094 254.757 28.0933 254.025 27.2Z" fill="#3C5BDC"/>
<path d="M260.939 41.9118V39.1489H264.435V41.9118H260.939Z" fill="#3C5BDC"/>
<path d="M274.007 42.0739C270.808 42.0739 268.613 40.2587 267.636 38.5253C267.013 37.3883 266.768 36.8463 266.768 32.2655C266.768 27.6589 267.013 27.1197 267.636 25.9813C268.613 24.2737 270.808 22.4572 274.007 22.4572C277.857 22.4572 280.512 25.0322 281.218 28.6625H277.424C276.937 27.1197 275.689 25.9813 274.007 25.9813C272.762 25.9813 271.838 26.5219 271.324 27.2C270.592 28.0933 270.43 28.6094 270.43 32.2669C270.43 35.8972 270.592 36.4133 271.324 37.3338C271.838 37.986 272.762 38.5539 274.007 38.5539C276.042 38.5539 277.612 37.0628 277.612 34.9508V34.3544H273.681V30.9665H281.273V35.1129C281.274 38.9869 278.076 42.0739 274.007 42.0739Z" fill="#3C5BDC"/>
<path d="M296.729 38.5253C295.753 40.2587 293.558 42.0739 290.356 42.0739C287.157 42.0739 284.962 40.2587 283.985 38.5253C283.363 37.3883 283.117 36.8463 283.117 32.2655C283.117 27.6589 283.363 27.1197 283.985 25.9813C284.962 24.2737 287.157 22.4572 290.356 22.4572C293.558 22.4572 295.753 24.2737 296.729 25.9813C297.352 27.1197 297.623 27.6589 297.623 32.2655C297.623 36.8463 297.352 37.3896 296.729 38.5253ZM293.041 27.2C292.525 26.5232 291.604 25.9813 290.356 25.9813C289.111 25.9813 288.187 26.5219 287.673 27.2C286.942 28.0933 286.78 28.6094 286.78 32.2669C286.78 35.8972 286.942 36.4133 287.673 37.3338C288.187 37.986 289.111 38.5539 290.356 38.5539C291.604 38.5539 292.525 37.9847 293.041 37.3338C293.773 36.4133 293.962 35.8972 293.962 32.2669C293.962 28.6094 293.773 28.0933 293.041 27.2Z" fill="#3C5BDC"/>
<path d="M307.384 41.9118H304.566L297.952 22.6206H301.829L306.22 36.7632H305.731L310.122 22.6206H314L307.384 41.9118Z" fill="#3C5BDC"/>
</svg>
