<svg width="140" height="48" viewBox="0 0 140 48" fill="none" xmlns="http://www.w3.org/2000/svg">
<g clip-path="url(#clip0_2947_1377)">
<path d="M17.2377 17.3041H24.8822C25.9315 17.3041 26.8308 18.2069 26.8308 19.2602V24.9781C26.8308 28.1379 24.2827 30.6959 21.1349 30.6959C17.9872 30.6959 15.439 28.1379 15.439 24.9781V19.2602C15.2891 18.2069 16.1884 17.3041 17.2377 17.3041Z" fill="#034AD8"/>
<path d="M32.6767 17.3041H40.3212C41.3704 17.3041 42.2698 18.2069 42.2698 19.2602V24.9781C42.2698 28.1379 39.7216 30.6959 36.5739 30.6959C33.4261 30.6959 30.8779 28.1379 30.8779 24.9781V19.2602C30.7281 18.2069 31.4775 17.3041 32.6767 17.3041Z" fill="#034AD8"/>
<path d="M1.94861 17.3041H9.59315C10.6424 17.3041 11.5418 18.2069 11.5418 19.2602V24.9781C11.5418 28.1379 8.99358 30.6959 5.84582 30.6959C2.69807 30.6959 0 28.2884 0 24.9781V19.2602C0 18.2069 0.899357 17.3041 1.94861 17.3041Z" fill="#034AD8"/>
<path d="M17.2377 0H24.8822C25.9315 0 26.8308 0.902821 26.8308 1.95611V7.67398C26.8308 10.8339 24.2827 13.3918 21.1349 13.3918C17.9872 13.3918 15.439 10.8339 15.439 7.67398V1.95611C15.2891 0.902821 16.1884 0 17.2377 0Z" fill="#034AD8"/>
<path d="M17.2377 34.6082H24.8822C25.9315 34.6082 26.8308 35.511 26.8308 36.5643V42.2821C26.8308 45.442 24.2827 48 21.1349 48C17.9872 48 15.439 45.442 15.439 42.2821V36.5643C15.2891 35.511 16.1884 34.6082 17.2377 34.6082Z" fill="#034AD8"/>
<path d="M57.409 17.4545V30.5455H54.2612V17.4545H57.409Z" fill="#021C51"/>
<path d="M71.4989 23.7743C71.4989 26.0313 70.8994 27.6865 69.5503 28.8903C68.2013 29.9436 66.5525 30.5455 64.3041 30.5455H60.257V17.4545H64.6039C66.7023 17.4545 68.3512 18.0564 69.5503 19.1097C70.8994 20.163 71.4989 21.6677 71.4989 23.7743ZM68.2013 23.9248C68.2013 22.5705 67.9015 21.6677 67.3019 20.9154C66.7024 20.3135 65.9529 20.0125 64.7537 20.0125H63.4047V27.9875H64.454C65.6531 27.9875 66.7024 27.6865 67.3019 26.9342C67.9015 26.3323 68.2013 25.279 68.2013 23.9248Z" fill="#021C51"/>
<path d="M72.0985 29.4922C72.0985 29.0408 72.2484 28.7398 72.5482 28.4389C72.848 28.2884 73.1478 28.1379 73.4475 28.1379C73.7473 28.1379 74.0471 28.2884 74.3469 28.4389C74.6467 28.5893 74.7966 29.0408 74.7966 29.4922C74.7966 29.9436 74.6467 30.2445 74.3469 30.5455C74.0471 30.6959 73.7473 30.8464 73.4475 30.8464C73.1478 30.8464 72.848 30.6959 72.5482 30.5455C72.0985 30.2445 72.0985 29.9436 72.0985 29.4922Z" fill="#034AD8"/>
<path d="M81.8415 23.0219H87.3876V29.9436C86.6381 30.2445 85.8886 30.395 85.1392 30.5455C84.3897 30.6959 83.4904 30.6959 82.4411 30.6959C80.4925 30.6959 78.9936 30.094 77.7944 29.0408C76.5953 27.837 76.1456 26.1818 76.1456 23.9248C76.1456 22.5705 76.4454 21.3668 76.8951 20.3135C77.4946 19.2602 78.2441 18.5078 79.2934 17.906C80.3426 17.3041 81.6916 17.0031 83.1906 17.0031C83.94 17.0031 84.6895 17.0031 85.439 17.1536C86.1884 17.3041 86.788 17.4545 87.3876 17.7555L86.3383 20.3135C85.8886 20.163 85.439 20.0125 84.8394 19.8621C84.3897 19.7116 83.7901 19.7116 83.1906 19.7116C82.4411 19.7116 81.6916 19.8621 81.0921 20.3135C80.4925 20.6144 80.1927 21.2163 79.8929 21.8182C79.5931 22.4201 79.4433 23.1724 79.4433 23.9248C79.4433 25.1285 79.743 26.1818 80.1927 26.9342C80.7923 27.6865 81.5418 27.9875 82.7409 27.9875C83.0407 27.9875 83.3405 27.9875 83.6403 27.9875C83.94 27.9875 84.2398 27.9875 84.3897 27.837V25.5799H81.8415V23.0219Z" fill="#021C51"/>
<path d="M102.677 23.9248C102.677 25.279 102.377 26.4828 101.927 27.536C101.478 28.5893 100.728 29.3417 99.8287 29.9436C98.9293 30.5455 97.7302 30.8464 96.2313 30.8464C94.7323 30.8464 93.5332 30.5455 92.6338 29.9436C91.7345 29.3417 90.985 28.5893 90.5353 27.536C90.0856 26.4828 89.7859 25.279 89.7859 23.9248C89.7859 22.5705 90.0856 21.3668 90.5353 20.3135C90.985 19.2602 91.7345 18.5078 92.6338 17.906C93.5332 17.3041 94.7323 17.0031 96.2313 17.0031C97.7302 17.0031 98.9293 17.3041 99.8287 17.906C100.728 18.5078 101.478 19.2602 101.927 20.3135C102.377 21.3668 102.677 22.5705 102.677 23.9248ZM93.0835 23.9248C93.0835 25.279 93.3833 26.1818 93.833 26.9342C94.2826 27.6865 95.182 27.9875 96.2313 27.9875C97.2805 27.9875 98.1799 27.6865 98.6295 26.9342C99.0792 26.1818 99.379 25.1285 99.379 23.9248C99.379 22.721 99.0792 21.6677 98.6295 20.9154C98.1799 20.163 97.4304 19.8621 96.2313 19.8621C95.182 19.8621 94.2826 20.163 93.833 20.9154C93.3833 21.6677 93.0835 22.721 93.0835 23.9248Z" fill="#021C51"/>
<path d="M116.017 17.4545L111.52 30.5455H107.923L103.426 17.4545H106.874L109.122 24.6771C109.122 24.8276 109.272 25.1285 109.422 25.5799C109.572 25.8809 109.572 26.3323 109.722 26.7837C109.872 27.2351 109.872 27.5361 109.872 27.6865C109.872 27.3856 110.021 27.0846 110.021 26.7837C110.171 26.3323 110.171 26.0313 110.321 25.5799C110.471 25.1285 110.471 24.9781 110.621 24.6771L112.719 17.4545H116.017Z" fill="#021C51"/>
<path d="M114.668 29.4922C114.668 29.0408 114.818 28.7398 115.118 28.4389C115.418 28.2884 115.717 28.1379 116.017 28.1379C116.317 28.1379 116.617 28.2884 116.916 28.4389C117.216 28.5893 117.366 29.0408 117.366 29.4922C117.366 29.9436 117.216 30.2445 116.916 30.5455C116.617 30.6959 116.317 30.8464 116.017 30.8464C115.717 30.8464 115.418 30.6959 115.118 30.5455C114.818 30.2445 114.668 29.9436 114.668 29.4922Z" fill="#034AD8"/>
<path d="M123.662 17.4545C125.31 17.4545 126.66 17.7555 127.409 18.5078C128.308 19.2602 128.608 20.3135 128.608 21.5172C128.608 22.2696 128.458 23.0219 128.158 23.7743C127.859 24.3762 127.259 24.9781 126.51 25.4295C125.76 25.8809 124.711 26.0313 123.512 26.0313H122.313V30.5455H119.165V17.4545H123.662ZM123.512 20.0125H122.313V23.4734H123.212C123.812 23.4734 124.411 23.3229 124.861 23.0219C125.31 22.721 125.46 22.2696 125.46 21.6677C125.46 20.4639 124.711 20.0125 123.512 20.0125Z" fill="#021C51"/>
<path d="M136.403 30.5455H133.255V20.0125H129.807V17.4545H140V20.0125H136.403V30.5455Z" fill="#021C51"/>
</g>
<defs>
<clipPath id="clip0_2947_1377">
<rect width="140" height="48" fill="white"/>
</clipPath>
</defs>
</svg>
