<svg width="163" height="48" viewBox="0 0 163 48" fill="none" xmlns="http://www.w3.org/2000/svg">
<rect x="1" y="1" width="161" height="46" rx="7" stroke="#BBD1FD" stroke-width="2"/>
<path d="M85.1754 31.7605H76.7815V29.366L78.6892 28.6258V19.3306L76.7815 18.6122V16.2177H85.1754V18.6122L83.2901 19.3306V28.6258L85.1754 29.366V31.7605Z" fill="#9CA6B8"/>
<path d="M92.8382 16.2177C94.7384 16.2177 96.1748 16.6458 97.1474 17.502C98.1349 18.3583 98.6286 19.5773 98.6286 21.1592C98.6286 21.8703 98.5314 22.5524 98.3369 23.2054C98.1424 23.844 97.8281 24.4245 97.3942 24.9469C96.9603 25.4549 96.3843 25.8612 95.6661 26.166C94.9479 26.4562 94.0576 26.6014 92.9953 26.6014H91.9854V31.7605H87.4069V16.2177H92.8382ZM92.8158 19.6136H91.9854V23.1837H92.6362C92.8607 23.1837 93.0851 23.1256 93.3095 23.0095C93.534 22.8789 93.721 22.6757 93.8706 22.4C94.0202 22.1098 94.0951 21.7324 94.0951 21.268C94.0951 20.7746 93.9903 20.3755 93.7809 20.0707C93.5714 19.766 93.2497 19.6136 92.8158 19.6136Z" fill="#9CA6B8"/>
<path d="M111.167 27.0367C111.167 27.8785 110.965 28.6766 110.561 29.4313C110.172 30.1859 109.529 30.8027 108.631 31.2816C107.733 31.746 106.544 31.9782 105.063 31.9782C104.285 31.9782 103.626 31.9419 103.088 31.8694C102.564 31.8113 102.085 31.7097 101.651 31.5646C101.217 31.4195 100.739 31.2308 100.215 30.9986V27.2544C101.083 27.6753 101.951 28.0018 102.818 28.234C103.686 28.4517 104.434 28.5605 105.063 28.5605C105.392 28.5605 105.669 28.5097 105.893 28.4082C106.118 28.3066 106.282 28.1687 106.387 27.9946C106.507 27.8204 106.566 27.6245 106.566 27.4068C106.566 27.1311 106.499 26.8989 106.364 26.7102C106.23 26.5215 105.975 26.3256 105.601 26.1224C105.227 25.9193 104.681 25.6726 103.963 25.3823C103.29 25.1066 102.714 24.8236 102.235 24.5333C101.771 24.2431 101.397 23.9166 101.113 23.5537C100.828 23.1909 100.619 22.7701 100.484 22.2912C100.35 21.7977 100.282 21.2172 100.282 20.5497C100.282 19.5483 100.537 18.7138 101.045 18.0463C101.569 17.3642 102.28 16.8562 103.177 16.5224C104.075 16.1741 105.108 16 106.275 16C107.382 16 108.347 16.1161 109.17 16.3483C110.008 16.566 110.689 16.82 111.212 17.1102L109.843 20.3537C109.245 20.049 108.609 19.8095 107.935 19.6354C107.262 19.4467 106.664 19.3524 106.14 19.3524C105.826 19.3524 105.571 19.3959 105.377 19.483C105.182 19.5701 105.04 19.6934 104.95 19.8531C104.861 19.9982 104.816 20.1651 104.816 20.3537C104.816 20.6005 104.898 20.8181 105.063 21.0068C105.242 21.1955 105.549 21.4059 105.983 21.6381C106.432 21.8558 107.053 22.1533 107.846 22.5306C108.564 22.8499 109.17 23.2054 109.664 23.5973C110.157 23.9891 110.531 24.4608 110.786 25.0122C111.04 25.5492 111.167 26.224 111.167 27.0367Z" fill="#9CA6B8"/>
<path d="M126.376 25.5782C126.376 26.8844 126.13 28.0163 125.636 28.9741C125.142 29.932 124.401 30.6721 123.414 31.1946C122.441 31.717 121.214 31.9782 119.733 31.9782C117.609 31.9782 115.985 31.434 114.863 30.3456C113.741 29.2426 113.18 27.6825 113.18 25.6653V16.2177H117.781V25.3388C117.781 26.4417 117.953 27.2399 118.297 27.7333C118.641 28.2268 119.135 28.4735 119.778 28.4735C120.257 28.4735 120.646 28.3646 120.945 28.1469C121.244 27.9293 121.461 27.5882 121.596 27.1238C121.731 26.6594 121.798 26.0571 121.798 25.317V16.2177H126.376V25.5782Z" fill="#9CA6B8"/>
<path d="M136.048 31.7605L133.152 20.3537H133.063C133.093 20.644 133.122 21.0358 133.152 21.5293C133.182 22.0227 133.212 22.5596 133.242 23.1401C133.272 23.7061 133.287 24.2576 133.287 24.7946V31.7605H129.247V16.2177H135.823L138.18 25.7959H138.247L140.424 16.2177H147V31.7605H142.826V24.7293C142.826 24.2358 142.833 23.7134 142.848 23.1619C142.863 22.5959 142.878 22.0662 142.893 21.5728C142.923 21.0649 142.953 20.6658 142.983 20.3755H142.893L140.222 31.7605H136.048Z" fill="#9CA6B8"/>
<path d="M16 31.7823V16.2395H20.5785V28.3864H26.1893V31.7823H16Z" fill="#9CA6B8"/>
<path d="M42.3735 23.9891C42.3735 25.1937 42.2313 26.2893 41.947 27.2762C41.6777 28.2485 41.2438 29.0902 40.6453 29.8014C40.0618 30.5125 39.2987 31.0567 38.3561 31.434C37.4284 31.8113 36.2988 32 34.9671 32C33.6654 32 32.5507 31.8113 31.6231 31.434C30.6954 31.0567 29.9323 30.5125 29.3338 29.8014C28.7354 29.0902 28.2865 28.2485 27.9872 27.2762C27.703 26.2893 27.5608 25.1864 27.5608 23.9673C27.5608 22.3565 27.8227 20.956 28.3463 19.766C28.87 18.5615 29.678 17.6327 30.7702 16.9796C31.8625 16.3265 33.2689 16 34.9896 16C36.7551 16 38.1766 16.3338 39.2538 17.0014C40.3461 17.6544 41.1391 18.5832 41.6328 19.7878C42.1266 20.9778 42.3735 22.3782 42.3735 23.9891ZM32.3637 23.9891C32.3637 24.9179 32.446 25.7234 32.6106 26.4054C32.7901 27.073 33.0744 27.5882 33.4634 27.951C33.8525 28.3138 34.3537 28.4952 34.9671 28.4952C35.6255 28.4952 36.1417 28.3138 36.5157 27.951C36.8898 27.5882 37.1591 27.073 37.3237 26.4054C37.4883 25.7234 37.5706 24.9179 37.5706 23.9891C37.5706 22.5814 37.3761 21.4712 36.9871 20.6585C36.613 19.8458 35.9472 19.4395 34.9896 19.4395C34.3462 19.4395 33.83 19.6281 33.441 20.0054C33.052 20.3683 32.7752 20.8907 32.6106 21.5728C32.446 22.2404 32.3637 23.0458 32.3637 23.9891Z" fill="#9CA6B8"/>
<path d="M51.1264 22.683H57.9043V31.0639C57.1263 31.3397 56.1911 31.5646 55.0989 31.7388C54.0216 31.9129 52.9294 32 51.8222 32C50.4007 32 49.1289 31.7097 48.0068 31.1293C46.8846 30.5488 46.0018 29.6635 45.3584 28.4735C44.7151 27.2834 44.3934 25.7814 44.3934 23.9673C44.3934 22.3419 44.6926 20.9342 45.2911 19.7442C45.8896 18.5542 46.7799 17.6399 47.9619 17.0014C49.1439 16.3483 50.6027 16.0218 52.3384 16.0218C53.3558 16.0218 54.3059 16.1161 55.1887 16.3048C56.0714 16.4789 56.8196 16.7111 57.433 17.0014L56.0191 20.2884C55.4355 20.0127 54.852 19.8095 54.2685 19.6789C53.685 19.5338 53.0565 19.4612 52.3832 19.4612C51.5005 19.4612 50.8197 19.6717 50.3409 20.0925C49.8621 20.5134 49.5329 21.0721 49.3534 21.7687C49.1888 22.4653 49.1065 23.2345 49.1065 24.0762C49.1065 25.034 49.2337 25.8467 49.488 26.5143C49.7574 27.1819 50.1239 27.6898 50.5878 28.0381C51.0666 28.3719 51.6127 28.5388 52.2261 28.5388C52.3159 28.5388 52.458 28.5315 52.6526 28.517C52.862 28.5025 53.064 28.4807 53.2585 28.4517C53.468 28.4227 53.6176 28.3936 53.7074 28.3646V25.9265H51.1264V22.683Z" fill="#9CA6B8"/>
<path d="M75.0085 23.9891C75.0085 25.1937 74.8663 26.2893 74.5821 27.2762C74.3127 28.2485 73.8788 29.0902 73.2803 29.8014C72.6968 30.5125 71.9337 31.0567 70.9911 31.434C70.0635 31.8113 68.9338 32 67.6022 32C66.3004 32 65.1858 31.8113 64.2581 31.434C63.3304 31.0567 62.5673 30.5125 61.9689 29.8014C61.3704 29.0902 60.9215 28.2485 60.6223 27.2762C60.338 26.2893 60.1958 25.1864 60.1958 23.9673C60.1958 22.3565 60.4577 20.956 60.9813 19.766C61.505 18.5615 62.313 17.6327 63.4052 16.9796C64.4975 16.3265 65.9039 16 67.6246 16C69.3902 16 70.8116 16.3338 71.8889 17.0014C72.9811 17.6544 73.7741 18.5832 74.2679 19.7878C74.7616 20.9778 75.0085 22.3782 75.0085 23.9891ZM64.9987 23.9891C64.9987 24.9179 65.081 25.7234 65.2456 26.4054C65.4251 27.073 65.7094 27.5882 66.0984 27.951C66.4875 28.3138 66.9887 28.4952 67.6022 28.4952C68.2605 28.4952 68.7767 28.3138 69.1508 27.951C69.5248 27.5882 69.7941 27.073 69.9587 26.4054C70.1233 25.7234 70.2056 24.9179 70.2056 23.9891C70.2056 22.5814 70.0111 21.4712 69.6221 20.6585C69.248 19.8458 68.5822 19.4395 67.6246 19.4395C66.9812 19.4395 66.465 19.6281 66.076 20.0054C65.687 20.3683 65.4102 20.8907 65.2456 21.5728C65.081 22.2404 64.9987 23.0458 64.9987 23.9891Z" fill="#9CA6B8"/>
</svg>
