<?xml version="1.0" encoding="UTF-8"?>
<svg id="Camada_1" data-name="Camada 1" xmlns="http://www.w3.org/2000/svg" viewBox="0 0 1023.72 370.09">
  <defs>
    <style>
      .cls-1 {
        fill: #fff;
      }
    </style>
  </defs>
  <g>
    <path class="cls-1" d="M85.98,132.43l-27.6,27.65h60.81l-38.24,20.33c-3.36,1.76-6.02,3.43-8.37,5.27-12.47,9.76-19.59,24.24-19.54,39.71.1,27.97,24.28,50.73,53.91,50.73h15.95l30.34-27.24h-46.29c-14.11,0-25.62-10.58-25.67-23.58-.03-7.19,3.29-13.92,9.09-18.46.97-.76,2.25-1.54,4.02-2.47l58.86-30.59v100.71h29.06v-142.05h-96.32Z"/>
    <polygon class="cls-1" points="210.59 132.43 210.59 274.48 241.54 274.48 241.54 160.18 241.54 132.43 210.59 132.43"/>
    <polygon class="cls-1" points="344.95 160.16 383.61 160.16 383.61 132.43 344.95 132.43 314.03 160.13 314 160.13 314 274.48 340.96 274.48 344.95 274.48 356.69 274.48 384.43 246.72 344.95 246.72 344.95 160.16"/>
    <rect class="cls-1" x="314" y="93.85" width="30.95" height="38.57"/>
    <polygon class="cls-1" points="241.54 160.15 291.52 160.15 291.52 132.43 272.26 132.43 241.54 160.15"/>
    <path class="cls-1" d="M535.34,190.04c-1.81-11.29-6.16-21.7-12.92-30.91-3.28-4.69-7.3-9.03-11.96-12.92-12.69-10.45-27.97-15.98-44.2-15.98s-31.69,5.68-44.21,15.99c-13.24,11.07-22.07,26.63-24.87,43.81-.05.28-.08.55-.12.83l29.91,27h108.12l.25-1.39c.67-3.77,1.01-7.77,1.01-11.88v-2.52c0-4.11-.33-8.04-1.01-12.02ZM426.98,188.62c5.51-17.12,21.5-28.99,39.29-28.99,11.09,0,21.51,4.41,29.35,12.42,2.34,2.39,4.35,5.01,5.83,7.58,1.89,3.11,3.25,6.07,4.15,8.99h-78.62Z"/>
    <path class="cls-1" d="M501.58,226.61l-.15.26c-1.41,2.45-3.32,4.98-5.8,7.7-8.01,8.02-18.44,12.44-29.36,12.44-17.81,0-33.8-11.93-39.29-29.15h-29.52c3.02,16.59,11.71,31.61,24.62,42.4,12.51,10.3,28.21,15.98,44.2,15.98s31.51-5.53,44.21-15.98c4.65-3.88,8.68-8.22,11.95-12.91l.82-1.17-.13-.13-21.53-19.43Z"/>
  </g>
  <g>
    <path class="cls-1" d="M602.04,120.9l-2.37-6.3h-7.69l-2.37,6.3h-3.3l8.12-21.4h2.8l8.13,21.4h-3.33ZM595.88,103.55h-.06l-2.75,8.18h5.52l-2.72-8.18Z"/>
    <path class="cls-1" d="M614.12,113.12v-2.86h13.53c-.2,7.11-5.58,11.05-11.28,11.05s-10.73-5.03-10.73-10.81c0-6.94,5.32-11.39,10.73-11.39,4.11,0,7.63,1.94,9.8,5.78h-3.64c-1.82-2.08-3.64-2.92-6.01-2.92-4.16,0-7.75,3.93-7.75,8.15,0,4.51,3.56,8.33,7.87,8.33,3.38,0,6.1-1.88,7.46-5.32h-9.98Z"/>
    <path class="cls-1" d="M630.75,120.9v-21.4h11.54v2.86h-8.42v6.3h8.42v2.86h-8.42v6.51h8.42v2.86h-11.54ZM638.44,97.97l-2-2-2.08,2h-3.47l4.05-3.9h2.89l4.05,3.9h-3.44Z"/>
    <path class="cls-1" d="M660.12,120.9l-10.58-16.54h-.06v16.54h-3.12v-21.4h3.41l10.41,16.28h.06v-16.28h3.12v21.4h-3.24Z"/>
    <path class="cls-1" d="M687.62,115.61c-2.17,3.73-5.61,5.7-9.89,5.7-5.93,0-10.81-5.32-10.81-11.02,0-6.45,5.09-11.19,10.84-11.19,4.05,0,7.84,1.85,10,5.87h-3.76c-1.62-1.88-3.5-3.01-6.01-3.01-4.48,0-7.95,3.79-7.95,8.04,0,4.48,3.38,8.44,7.78,8.44,2.23,0,4.22-.87,5.96-2.83h3.85Z"/>
    <path class="cls-1" d="M690.88,120.9v-21.4h3.12v21.4h-3.12Z"/>
    <path class="cls-1" d="M712.54,120.9l-2.37-6.3h-7.69l-2.37,6.3h-3.3l8.12-21.4h2.8l8.12,21.4h-3.33ZM706.38,103.55h-.06l-2.75,8.18h5.52l-2.72-8.18Z"/>
    <path class="cls-1" d="M727.2,120.9v-21.4h6.22c4.6,0,7.52,2.28,7.52,6.48s-2.86,6.48-7.49,6.48h-3.12v8.44h-3.12ZM733.41,109.59c2.75,0,4.39-1.3,4.39-3.61s-1.71-3.61-4.42-3.61h-3.07v7.23h3.09Z"/>
    <path class="cls-1" d="M754.98,120.9l-2.37-6.3h-7.69l-2.37,6.3h-3.3l8.12-21.4h2.8l8.12,21.4h-3.33ZM748.83,103.55h-.06l-2.75,8.18h5.52l-2.72-8.18Z"/>
    <path class="cls-1" d="M771.06,120.9l-7.05-9.92h-.06v9.92h-3.12v-21.4h6.85c5.15,0,7.43,2.72,7.43,7.11,0,4.08-3.12,6.22-6.13,6.3l5.99,7.98h-3.9ZM766.23,110.55c3.64,0,5.75-1.42,5.75-4.19,0-2.46-1.97-3.99-4.74-3.99h-3.3v8.18h2.29Z"/>
    <path class="cls-1" d="M792.51,120.9l-2.37-6.3h-7.69l-2.37,6.3h-3.3l8.12-21.4h2.8l8.12,21.4h-3.33ZM786.35,103.55h-.06l-2.75,8.18h5.52l-2.72-8.18Z"/>
    <path class="cls-1" d="M820.82,120.9l-2.37-6.3h-7.69l-2.37,6.3h-3.3l8.12-21.4h2.8l8.12,21.4h-3.33ZM814.66,103.55h-.06l-2.75,8.18h5.52l-2.72-8.18Z"/>
    <path class="cls-1" d="M845.71,120.9l-7.05-9.92h-.06v9.92h-3.12v-21.4h6.85c5.15,0,7.43,2.72,7.43,7.11,0,4.08-3.12,6.22-6.13,6.3l5.99,7.98h-3.9ZM840.88,110.55c3.64,0,5.75-1.42,5.75-4.19,0-2.46-1.97-3.99-4.74-3.99h-3.3v8.18h2.29Z"/>
    <path class="cls-1" d="M852.94,120.9v-21.4h11.54v2.86h-8.42v6.3h8.42v2.86h-8.42v6.51h8.42v2.86h-11.54Z"/>
    <path class="cls-1" d="M868.26,120.9v-21.4h10.81v2.86h-7.69v6.42h7.69v2.86h-7.69v9.25h-3.12Z"/>
    <path class="cls-1" d="M892.66,121.3c-5.93,0-10.96-5.09-10.96-10.87,0-6.56,5.03-11.33,11.05-11.33,6.36,0,11.22,5,11.22,10.96,0,6.48-5,11.25-11.31,11.25ZM900.84,110.26c0-4.42-3.35-8.3-7.87-8.3-5.78,0-8.15,4.97-8.15,8.15,0,4.31,3.12,8.33,8.01,8.33s8.01-4.28,8.01-8.18Z"/>
    <path class="cls-1" d="M917.47,120.9l-7.05-9.92h-.06v9.92h-3.12v-21.4h6.85c5.15,0,7.43,2.72,7.43,7.11,0,4.08-3.12,6.22-6.13,6.3l5.99,7.98h-3.9ZM912.64,110.55c3.64,0,5.75-1.42,5.75-4.19,0-2.46-1.97-3.99-4.74-3.99h-3.3v8.18h2.29Z"/>
    <path class="cls-1" d="M944.56,120.9v-18.07h-.09l-7.2,18.07h-1.88l-7.23-18.07h-.06v18.07h-3.12v-21.4h4.92l6.42,16.4,6.45-16.4h4.92v21.4h-3.12Z"/>
    <path class="cls-1" d="M966.21,120.9l-2.37-6.3h-7.69l-2.37,6.3h-3.3l8.12-21.4h2.8l8.13,21.4h-3.33ZM960.05,103.55h-.06l-2.75,8.18h5.52l-2.72-8.18Z"/>
    <path class="cls-1" d="M590.24,159.68v-18.53h-4.11v-2.86h11.33v2.86h-4.11v18.53h-3.12Z"/>
    <path class="cls-1" d="M600.13,159.68v-21.4h11.54v2.86h-8.42v6.3h8.42v2.86h-8.42v6.51h8.42v2.86h-11.54Z"/>
    <path class="cls-1" d="M635.63,154.39c-2.17,3.73-5.61,5.7-9.89,5.7-5.93,0-10.81-5.32-10.81-11.02,0-6.45,5.09-11.19,10.84-11.19,4.05,0,7.84,1.85,10,5.87h-3.76c-1.62-1.88-3.5-3.01-6.01-3.01-4.48,0-7.95,3.79-7.95,8.04,0,4.48,3.38,8.44,7.78,8.44,2.23,0,4.22-.87,5.96-2.83h3.85Z"/>
    <path class="cls-1" d="M652.93,159.68l-10.58-16.54h-.06v16.54h-3.12v-21.4h3.41l10.41,16.28h.06v-16.28h3.12v21.4h-3.24Z"/>
    <path class="cls-1" d="M670.94,160.09c-5.93,0-10.96-5.09-10.96-10.87,0-6.56,5.03-11.33,11.05-11.33,6.36,0,11.22,5,11.22,10.96,0,6.48-5,11.25-11.31,11.25ZM679.12,149.04c0-4.42-3.35-8.3-7.87-8.3-5.78,0-8.15,4.97-8.15,8.15,0,4.31,3.12,8.33,8.01,8.33s8.01-4.28,8.01-8.18Z"/>
    <path class="cls-1" d="M686.17,159.68v-21.4h3.12v18.53h7.43v2.86h-10.55Z"/>
    <path class="cls-1" d="M709.33,160.09c-5.93,0-10.96-5.09-10.96-10.87,0-6.56,5.03-11.33,11.05-11.33,6.36,0,11.22,5,11.22,10.96,0,6.48-5,11.25-11.31,11.25ZM717.51,149.04c0-4.42-3.35-8.3-7.87-8.3-5.78,0-8.15,4.97-8.15,8.15,0,4.31,3.12,8.33,8.01,8.33s8.01-4.28,8.01-8.18ZM707.45,137.22l-1.21-2.17,6.45-3.7,1.27,2.34-6.51,3.53Z"/>
    <path class="cls-1" d="M731.85,151.91v-2.86h13.53c-.2,7.11-5.58,11.05-11.28,11.05s-10.73-5.03-10.73-10.81c0-6.94,5.32-11.39,10.73-11.39,4.11,0,7.63,1.94,9.8,5.78h-3.64c-1.82-2.08-3.64-2.92-6.01-2.92-4.16,0-7.75,3.93-7.75,8.15,0,4.51,3.56,8.33,7.87,8.33,3.38,0,6.1-1.88,7.46-5.32h-9.98Z"/>
    <path class="cls-1" d="M749.03,159.68v-21.4h3.12v21.4h-3.12Z"/>
    <path class="cls-1" d="M776.64,154.39c-2.17,3.73-5.61,5.7-9.89,5.7-5.93,0-10.81-5.32-10.81-11.02,0-6.45,5.09-11.19,10.84-11.19,4.05,0,7.84,1.85,10,5.87h-3.76c-1.62-1.88-3.5-3.01-6.01-3.01-4.48,0-7.95,3.79-7.95,8.04,0,4.48,3.38,8.44,7.78,8.44,2.23,0,4.22-.87,5.96-2.83h3.85Z"/>
    <path class="cls-1" d="M792.94,159.68l-2.37-6.3h-7.69l-2.37,6.3h-3.3l8.12-21.4h2.8l8.12,21.4h-3.33ZM786.79,142.33h-.06l-2.75,8.18h5.52l-2.72-8.18Z"/>
    <path class="cls-1" d="M808.12,159.68v-21.4h7.43c6.48,0,10.44,5.12,10.44,10.7,0,6.54-4.13,10.7-10.9,10.7h-6.97ZM814.97,156.82c4.94,0,7.89-2.89,7.89-7.78s-3.38-7.89-7.75-7.89h-3.88v15.67h3.73Z"/>
    <path class="cls-1" d="M840.01,160.09c-5.93,0-10.96-5.09-10.96-10.87,0-6.56,5.03-11.33,11.05-11.33,6.36,0,11.22,5,11.22,10.96,0,6.48-5,11.25-11.31,11.25ZM848.2,149.04c0-4.42-3.35-8.3-7.87-8.3-5.78,0-8.15,4.97-8.15,8.15,0,4.31,3.12,8.33,8.01,8.33s8.01-4.28,8.01-8.18Z"/>
    <path class="cls-1" d="M863.92,159.68v-21.4h11.54v2.86h-8.42v6.3h8.42v2.86h-8.42v6.51h8.42v2.86h-11.54Z"/>
    <path class="cls-1" d="M887.75,143.84c0-1.94-1.24-3.09-3.01-3.09-1.5,0-2.86,1.36-2.86,2.92s1.01,2.37,3.09,3.04c4.63,1.47,6.33,3.21,6.33,6.91s-2.78,6.48-6.56,6.48-6.54-2.72-6.59-6.74h3.12c.03,2.31,1.39,3.87,3.47,3.87s3.44-1.5,3.44-3.61c0-1.56-.69-2.54-2.98-3.33-5.29-1.79-6.45-3.53-6.45-6.56,0-3.27,2.69-5.84,5.99-5.84,3.53,0,6.07,2.23,6.13,5.96h-3.12Z"/>
    <path class="cls-1" d="M896.91,159.68v-18.53h-4.11v-2.86h11.33v2.86h-4.11v18.53h-3.12Z"/>
    <path class="cls-1" d="M920.3,159.68l-2.37-6.3h-7.69l-2.37,6.3h-3.3l8.12-21.4h2.8l8.13,21.4h-3.33ZM914.14,142.33h-.06l-2.75,8.18h5.52l-2.72-8.18Z"/>
    <path class="cls-1" d="M926.4,159.68v-21.4h7.43c6.48,0,10.44,5.12,10.44,10.7,0,6.54-4.13,10.7-10.9,10.7h-6.97ZM933.25,156.82c4.94,0,7.89-2.89,7.89-7.78s-3.38-7.89-7.75-7.89h-3.88v15.67h3.73Z"/>
    <path class="cls-1" d="M958.29,160.09c-5.93,0-10.96-5.09-10.96-10.87,0-6.56,5.03-11.33,11.05-11.33,6.36,0,11.22,5,11.22,10.96,0,6.48-5,11.25-11.31,11.25ZM966.47,149.04c0-4.42-3.35-8.3-7.87-8.3-5.78,0-8.15,4.97-8.15,8.15,0,4.31,3.12,8.33,8.01,8.33s8.01-4.28,8.01-8.18Z"/>
  </g>
</svg>