<svg width="110" height="32" viewBox="0 0 110 32" fill="none" xmlns="http://www.w3.org/2000/svg">
<path d="M75.3834 7.76014C75.5552 8.20982 76.0021 8.28691 76.3028 7.95286C77.725 6.38112 78.3523 4.96785 79.3233 3.22481C79.7014 2.54815 79.7401 2.45821 80.1526 1.80296C80.3201 1.53744 80.7927 0.839368 81.0548 0.646648C81.4501 0.351145 82.043 0.111315 82.5114 0.0813363C82.9453 0.0556404 83.4265 -0.119947 83.7058 0.376841C84.1355 1.12631 82.4641 2.95072 82.0559 3.68733C80.1053 7.16485 78.3394 10.5096 76.1481 13.8415C75.7829 14.394 75.3533 15.3918 75.147 16.0171C75.0611 16.2783 74.9365 16.5267 74.7518 16.7409C74.2061 17.379 73.2136 17.2462 72.8913 16.4839C72.5863 15.7559 72.6121 15.2077 73.0503 14.3511C74.7217 11.0835 74.3264 11.1563 73.9999 9.76014C73.5358 7.76442 73.3683 6.57813 72.8312 4.59954C72.4875 3.34044 72.3715 2.74087 72.4015 2.11988C72.4359 1.4004 73.248 0.68091 73.6475 0.753715C74.1374 0.847933 74.3436 1.2762 74.4983 1.98284C74.8463 3.55457 74.6443 3.68733 74.9709 5.70446C75.0181 5.97855 75.2201 7.33187 75.3834 7.76014Z" fill="#2DAAE1"/>
<path d="M88.6598 9.83724C88.836 9.70876 89.0165 9.576 89.1883 9.44324C89.111 9.49463 88.909 9.6488 88.6598 9.83724ZM88.6598 9.83724C88.5782 9.8972 88.4966 9.96144 88.4106 10.0214C88.5009 9.95715 88.5825 9.8972 88.6598 9.83724Z" fill="#2DAAE1"/>
<path d="M109.971 6.40683C109.889 6.12417 109.515 6.0685 109.206 6.06422C108.183 6.05137 107.474 6.32974 106.628 6.89934C106.005 7.32332 105.82 7.46036 105.206 7.90148C105.038 8.01711 104.497 8.50105 104.308 8.66379C104.102 8.84794 103.758 8.72375 103.723 8.44966C103.663 7.98285 103.844 7.59741 103.904 7.29334C103.99 6.86079 104.282 6.4154 103.925 6.167C103.423 5.81582 102.709 5.89291 102.159 6.43681C101.717 6.87364 101.837 7.26764 101.743 7.95287C101.597 8.96786 101.425 9.99998 101.012 10.9379C100.54 12.0128 100.119 13.0921 99.1648 13.8201C98.8468 14.0642 97.9359 14.9122 97.4547 14.0385C97.2614 13.6831 97.8457 12.0985 97.9402 11.8458C98.3828 10.6681 98.4601 10.5696 98.864 9.37899C99.1175 8.62525 98.791 8.04709 98.0262 7.6488C97.3946 7.32332 96.8403 7.45608 96.3376 8.07707C96.1142 8.35116 94.3354 13.1092 93.1238 14.6938C92.9218 14.9593 92.6125 15.4561 91.8348 15.1477C91.3106 14.9422 91.3407 14.2869 91.3622 14.0257C91.4266 13.3576 91.7231 12.4711 91.9594 11.8415C92.3289 10.8694 92.6898 9.95287 92.8703 9.01925C93.0679 7.99141 92.0754 7.82011 91.0915 8.1927C90.9067 8.2655 90.7306 8.36829 90.5587 8.47964C90.099 8.76229 89.6564 9.09206 89.2096 9.43039C89.2053 9.43467 89.1967 9.43895 89.1924 9.44323C88.9389 9.63595 88.6811 9.83295 88.4147 10.0214C88.303 10.107 88.187 10.1884 88.071 10.2655C87.9765 10.3297 87.8863 10.3983 87.796 10.4539C87.4566 10.6809 87.1601 10.8308 87.0613 10.7794C87.0183 10.7623 87.0055 10.7152 87.0141 10.6724C87.0484 10.5139 87.1258 10.1327 87.1558 10.0428C87.5683 8.74944 87.3277 7.72589 86.4512 7.02782C85.6048 6.35972 84.7068 6.14131 83.783 6.7109C83.6069 6.81797 83.4436 6.94216 83.276 7.06636C81.1063 8.70662 79.9763 10.9293 79.4521 13.4946C79.1642 14.8736 79.7571 15.8886 80.7754 16.7152C81.3855 17.2077 82.1246 17.3619 82.928 17.1948C83.7959 17.0107 84.3974 16.4925 84.8615 15.7901C85.3899 14.9807 85.9356 13.8458 86.2579 12.9464C86.4899 12.3083 87.4953 11.3105 88.2214 10.9507L88.2257 10.9422C88.578 10.7751 88.9518 10.591 89.2698 10.5696C89.4975 10.5524 89.6951 10.7023 89.6264 10.9208C89.3385 11.8244 88.7885 13.6231 88.6296 14.501C88.505 15.182 88.7327 16.197 89.317 16.5996C90.5201 17.4304 91.5555 17.8244 93.0121 17.0492C93.6179 16.728 94.069 16.3683 94.5717 15.9143C94.9541 15.5674 95.1389 15.2248 95.4998 14.8908C95.5986 14.8008 95.8006 14.6295 95.9037 14.7152C96.0025 14.7923 95.9681 15.0364 95.9896 15.1606C96.2818 16.6852 97.1497 16.9122 98.3613 15.9229C98.7566 15.6017 99.0058 15.2377 99.3452 14.8651C99.414 14.788 100.286 13.7473 100.419 13.8415C100.514 13.91 100.101 14.9636 100.071 15.0578C99.951 15.4261 99.8264 15.6788 99.719 16.0471C99.6288 16.3683 99.7018 16.7323 99.8522 16.8479C100.321 17.2163 101.408 17.1777 101.708 16.7323C102.215 15.9829 102.25 15.2034 102.568 14.3426C103.354 12.2055 104.359 9.88863 106.503 8.57814C107.616 7.89719 108.493 7.43467 109.691 6.92503C109.919 6.83081 110.065 6.72375 109.971 6.40683ZM83.246 14.7152C82.9753 15.1948 80.7196 15.8929 81.3383 13.6659C81.5789 12.7966 82.6917 10.107 83.9936 8.81797C83.9936 8.81797 84.9044 7.61026 85.231 9.40897C85.3814 10.2184 84.7841 11.9957 83.246 14.7152Z" fill="#2DAAE1"/>
<path d="M59.2839 4.81373C57.909 4.84799 57.7586 2.73236 58.923 2.1799C60.1948 1.57604 60.7577 2.0814 60.7705 3.13921C60.7834 4.03857 60.5514 4.62101 59.2839 4.81373Z" fill="#2DAAE1"/>
<path d="M64.8826 3.08351C63.5077 3.11777 63.3573 1.00214 64.5216 0.449673C65.7934 -0.154182 66.3563 0.351173 66.3692 1.40899C66.3821 2.30406 66.1457 2.89079 64.8826 3.08351Z" fill="#2DAAE1"/>
<path d="M68.3411 3.60599C68.3411 3.76873 68.3024 3.93147 68.268 4.08565C67.8813 6.02997 67.3529 7.94004 66.5795 9.76445C66.1928 10.6767 65.7288 11.5589 65.1659 12.3769C64.878 12.7923 64.5386 13.1477 64.2078 13.5161C63.8812 13.8929 63.4817 14.2056 63.0692 14.4839C62.2356 15.0236 61.2088 15.3662 60.1991 15.1949C59.1894 15.0407 58.3 14.4625 57.5954 13.7602C56.8907 13.0492 56.3064 12.2313 55.8166 11.3704C55.5717 10.9379 55.3354 10.5011 55.1248 10.0471L54.8155 9.37473C54.7081 9.1606 54.6092 8.8865 54.6135 8.62526C54.6092 8.35974 54.6608 8.0985 54.794 7.8501C54.9401 7.60599 55.1635 7.46038 55.3482 7.31049C55.5287 7.15631 55.7435 6.97644 56.0013 6.89079C56.2548 6.79657 56.5513 6.80085 56.8048 6.89507C57.0583 6.98929 57.2903 7.15631 57.445 7.38329C57.5996 7.61456 57.6684 7.88008 57.6899 8.14132C57.6985 8.27837 57.6899 8.40685 57.6684 8.53961C57.6512 8.67237 57.5911 8.80514 57.5954 8.88222C57.5996 9.09636 57.6641 9.34047 57.7242 9.57173C57.982 10.5182 58.3601 11.4261 59.0777 12.0899C59.4171 12.4411 59.7909 12.7452 60.2377 12.8994C60.6803 13.0578 61.1658 13.0707 61.6298 12.9679C62.5622 12.7495 63.3871 12.167 64.0273 11.4347C64.6804 10.7066 65.2304 9.88436 65.6772 9.0107C66.1412 8.14132 66.4635 7.21199 66.7728 6.2698C67.0779 5.32762 67.3443 4.38115 67.5978 3.42184C67.6064 3.40471 67.6064 3.40042 67.6107 3.39186L67.6193 3.36188C67.6278 3.34475 67.6321 3.3319 67.6493 3.31049C67.6493 3.31049 67.645 3.31049 67.6493 3.30621L67.6536 3.29764V3.29336C67.7267 3.19486 67.8298 3.08779 67.9716 3.07922C68.1177 3.07922 68.2165 3.18629 68.2809 3.29764C68.3067 3.34047 68.311 3.37473 68.3282 3.41755C68.3368 3.49464 68.3411 3.55032 68.3411 3.60599Z" fill="#2DAAE1"/>
<path d="M54.8198 18.5867H63.5548V20.8308H58.0895V22.501H63.1638V24.6466H58.0895V26.7194H63.718V29.1006H54.8241V18.5867H54.8198Z" fill="#164194"/>
<path d="M73.2992 29.1005H70.5666V27.8671C70.1584 28.3725 69.746 28.7365 69.3335 28.9506C68.9167 29.1648 68.4097 29.2718 67.8039 29.2718C66.9962 29.2718 66.3646 29.032 65.9091 28.5524C65.4494 28.0727 65.2217 27.3318 65.2217 26.3339V21.486H68.1648V25.6744C68.1648 26.1541 68.2551 26.4924 68.4312 26.6937C68.6074 26.895 68.8566 26.9935 69.1788 26.9935C69.5268 26.9935 69.8147 26.8607 70.0381 26.5909C70.2616 26.3211 70.3733 25.8414 70.3733 25.1476V21.4817H73.3035V29.1005H73.2992Z" fill="#164194"/>
<path d="M75.0737 21.486H77.8149V22.7323C78.077 22.1926 78.352 21.8201 78.6313 21.6188C78.9106 21.4175 79.2586 21.3147 79.6711 21.3147C80.1007 21.3147 80.5733 21.4475 81.0889 21.7173L80.1824 23.7986C79.8386 23.6573 79.5636 23.5845 79.3617 23.5845C78.9793 23.5845 78.6786 23.743 78.468 24.0599C78.1673 24.5053 78.0169 25.3361 78.0169 26.5567V29.1091H75.0737V21.486Z" fill="#164194"/>
<path d="M81.1836 25.3147C81.1836 24.1541 81.5746 23.1948 82.3652 22.441C83.1514 21.6873 84.2127 21.3104 85.5532 21.3104C87.0828 21.3104 88.2386 21.7515 89.0205 22.638C89.6478 23.349 89.9615 24.2269 89.9615 25.2719C89.9615 26.4453 89.5705 27.4046 88.7928 28.1498C88.0151 28.8993 86.9367 29.2719 85.5575 29.2719C84.3287 29.2719 83.3362 28.9592 82.58 28.3383C81.6476 27.5717 81.1836 26.5652 81.1836 25.3147ZM84.1182 25.3061C84.1182 25.9871 84.2556 26.4882 84.5306 26.8136C84.8056 27.1391 85.1536 27.3019 85.5704 27.3019C85.9915 27.3019 86.3395 27.1434 86.6102 26.8222C86.8809 26.501 87.0183 25.9871 87.0183 25.2804C87.0183 24.6209 86.8809 24.1284 86.6102 23.8072C86.3352 23.486 86 23.3233 85.5962 23.3233C85.1708 23.3233 84.8185 23.486 84.5392 23.8158C84.2556 24.1413 84.1182 24.638 84.1182 25.3061Z" fill="#164194"/>
<path d="M91.3579 31.9999V21.486H94.0991V22.6123C94.4772 22.137 94.8252 21.8201 95.1432 21.653C95.5686 21.4303 96.0412 21.3147 96.5611 21.3147C97.5837 21.3147 98.3742 21.7044 98.9328 22.4839C99.4913 23.2633 99.7706 24.2269 99.7706 25.3747C99.7706 26.6423 99.4655 27.6102 98.8554 28.274C98.2453 28.9421 97.4762 29.2762 96.5439 29.2762C96.0927 29.2762 95.6803 29.1991 95.3108 29.0449C94.9413 28.8907 94.6061 28.6637 94.314 28.3639V31.9999H91.3579ZM94.2925 25.3147C94.2925 25.9185 94.4214 26.3639 94.6749 26.6552C94.9284 26.9464 95.2506 27.092 95.6373 27.092C95.9767 27.092 96.2646 26.9507 96.4923 26.6723C96.7243 26.3939 96.836 25.9186 96.836 25.2505C96.836 24.6338 96.7157 24.1798 96.4751 23.8929C96.2345 23.6016 95.9424 23.4603 95.5986 23.4603C95.2248 23.4603 94.9112 23.6059 94.662 23.8971C94.4171 24.1884 94.2925 24.6594 94.2925 25.3147Z" fill="#164194"/>
<path d="M109.627 26.0171H103.753C103.805 26.4839 103.934 26.8351 104.136 27.0663C104.419 27.3961 104.789 27.5631 105.244 27.5631C105.532 27.5631 105.807 27.4903 106.065 27.349C106.224 27.259 106.392 27.0963 106.576 26.8693L109.464 27.1348C109.021 27.9014 108.488 28.4496 107.865 28.7794C107.242 29.1134 106.349 29.2762 105.18 29.2762C104.166 29.2762 103.371 29.1348 102.791 28.8479C102.211 28.5652 101.73 28.1113 101.347 27.4903C100.965 26.8693 100.776 26.1413 100.776 25.3061C100.776 24.1156 101.158 23.152 101.923 22.4154C102.688 21.6787 103.745 21.3104 105.094 21.3104C106.19 21.3104 107.053 21.4774 107.685 21.8072C108.316 22.137 108.802 22.6166 109.133 23.2419C109.464 23.8672 109.631 24.6852 109.631 25.6873V26.0171H109.627ZM106.645 24.6209C106.589 24.0556 106.434 23.653 106.19 23.4089C105.94 23.1648 105.618 23.0449 105.214 23.0449C104.75 23.0449 104.376 23.2291 104.097 23.5974C103.921 23.8286 103.805 24.167 103.758 24.6209H106.645Z" fill="#164194"/>
<path d="M43.9153 0H0V29.182H43.9153V0Z" fill="#164194"/>
<path d="M21.0188 6.35545L21.9469 5.68308L22.8706 6.35545L22.5183 5.26766L23.4593 4.59528H22.2992L21.9469 3.49036L21.5903 4.59528H20.4302L21.3711 5.26766L21.0188 6.35545Z" fill="#FFED00"/>
<path d="M16.2239 7.64025L17.1519 6.96788L18.0757 7.64025L17.7234 6.55246L18.6643 5.8758H17.5043L17.1519 4.77087L16.7953 5.88008L15.6353 5.8758L16.5762 6.55246L16.2239 7.64025Z" fill="#FFED00"/>
<path d="M13.6418 8.27832L13.2852 9.38324H12.1294L13.066 10.0556L12.7137 11.1477L13.6418 10.471L14.5698 11.1477L14.2175 10.0556L15.1585 9.38324H13.9984L13.6418 8.27832Z" fill="#FFED00"/>
<path d="M12.357 15.2462L13.2808 15.9186L12.9285 14.8308L13.8694 14.1541H12.7093L12.357 13.0535L12.0004 14.1584L10.8403 14.1541L11.7813 14.8308L11.429 15.9186L12.357 15.2462Z" fill="#FFED00"/>
<path d="M13.9984 18.9465L13.6418 17.8416L13.2852 18.9465H12.1294L13.066 19.6189L12.7137 20.7066L13.6418 20.0343L14.5698 20.7066L14.2175 19.6189L15.1585 18.9465H13.9984Z" fill="#FFED00"/>
<path d="M17.5131 22.4497L17.1564 21.3447L16.8041 22.4497H15.644L16.585 23.122L16.2327 24.2141L17.1564 23.5374L18.0845 24.2141L17.7322 23.122L18.6731 22.4497H17.5131Z" fill="#FFED00"/>
<path d="M22.3035 23.7174L21.9469 22.6124L21.5903 23.7174H20.4302L21.3711 24.394L21.0188 25.4818L21.9469 24.8094L22.8749 25.4818L22.5226 24.394L23.4636 23.7174H22.3035Z" fill="#FFED00"/>
<path d="M27.0902 22.4497L26.7379 21.3447L26.3813 22.4497H25.2212L26.1621 23.122L25.8098 24.2141L26.7379 23.5374L27.6616 24.2141L27.3093 23.122L28.2503 22.4497H27.0902Z" fill="#FFED00"/>
<path d="M30.6087 18.9465L30.252 17.8416L29.8954 18.9465H28.7354L29.6763 19.6189L29.324 20.7066L30.252 20.0343L31.1801 20.7066L30.8235 19.6189L31.7644 18.9465H30.6087Z" fill="#FFED00"/>
<path d="M33.0408 14.1413H31.8807L31.5241 13.0364L31.1718 14.1456L30.0117 14.1413L30.9527 14.818L30.6004 15.9058L31.5241 15.2334L32.4522 15.9058L32.0999 14.818L33.0408 14.1413Z" fill="#FFED00"/>
<path d="M29.324 11.1306L30.252 10.4582L31.1801 11.1306L30.8235 10.0428L31.7644 9.37043H30.6087L30.252 8.2655L29.8954 9.37043H28.7354L29.6763 10.0428L29.324 11.1306Z" fill="#FFED00"/>
<path d="M26.7506 4.77515L26.394 5.88007L25.2339 5.87579L26.1748 6.55245L25.8225 7.64453L26.7506 6.96787L27.6786 7.64453L27.3263 6.55245L28.2673 5.87579H27.1029L26.7506 4.77515Z" fill="#FFED00"/>
</svg>
